<svg xmlns="http://www.w3.org/2000/svg" width="64" height="64" enable-background="new 0 0 64 64" viewBox="0 0 64 64"><path fill="#E98D08" d="M368,480h-3.149c-1.465,0-2.556-0.631-3.39-1.607c-0.753-0.875-1.273-2.014-1.673-3.187
		c-0.748-2.192-1.766-4.089-2.783-5.985c-2.132-3.987-4.265-7.983-4.216-14.62l0,0c0-3.105,0.933-5.99,2.531-8.399
		c-9.106-1.985-9.358-13.647-11.845-20.834c-0.118-0.293-0.09-0.643,0.102-0.928c0.313-0.46,0.936-0.577,1.392-0.265
		c1.563,1.063,3.174,2.063,4.785,3.057c5.688,3.527,11.377,7.056,14.112,12.732c1.318-0.371,2.701-0.57,4.134-0.57
		s2.815,0.199,4.13,0.57c2.739-5.677,8.428-9.205,14.116-12.732c1.611-0.993,3.223-1.994,4.781-3.057
		c0.46-0.313,1.082-0.195,1.396,0.265c0.191,0.285,0.22,0.635,0.102,0.928c-2.49,7.187-2.738,18.849-11.845,20.834
		c1.599,2.409,2.531,5.294,2.531,8.399l-0.005,0.077c0.037,6.592-2.091,10.571-4.215,14.543c-1.014,1.896-2.031,3.793-2.779,5.985
		c-0.399,1.173-0.92,2.312-1.673,3.187c-0.834,0.977-1.925,1.607-3.39,1.607H368L368,480z"/><path fill="#732413" d="M366.995,474.71c-1.021-0.212-1.811-0.773-2.385-1.685c-0.655-1.046-0.964-2.539-0.964-4.505
		c0-0.663,0.269-1.273,0.708-1.709v-0.004c0.439-0.436,1.045-0.708,1.713-0.708l0,0h3.865c0.659,0,1.27,0.269,1.709,0.708v0.004
		c0.439,0.439,0.712,1.046,0.712,1.709c0,1.917-0.309,3.414-0.96,4.469c-0.569,0.919-1.363,1.497-2.389,1.717L366.995,474.71z"/><path fill="#8A4208" d="M356.712,444.411c0.171-0.195,0.351-0.383,0.529-0.562c1.351-1.351,2.946-2.441,4.725-3.215
		c-2.535-5.046-7.898-8.374-13.262-11.698c-0.847-0.521-1.688-1.046-2.519-1.571C347.886,433.461,348.806,443.427,356.712,444.411
		L356.712,444.411z M374.034,440.635c1.774,0.773,3.374,1.864,4.721,3.215c0.183,0.179,0.362,0.366,0.533,0.562
		c7.906-0.984,8.826-10.95,10.526-17.046c-0.83,0.525-1.672,1.05-2.515,1.571C381.933,432.261,376.569,435.589,374.034,440.635
		L374.034,440.635z"/><path fill="#8CA9C7" d="M291.369,440.956c0.276-2.368,1.359-4.496,2.963-6.096c1.871-1.871,4.459-3.035,7.316-3.035
		c2.856,0,5.444,1.164,7.32,3.035l0,0c1.871,1.872,3.031,4.46,3.031,7.316s-1.155,5.444-3.031,7.316l-0.004,0.004l-0.013,0.013
		c-1.876,1.863-4.456,3.02-7.304,3.02c-0.488,0-0.993-0.037-1.498-0.114c0.216,1.066,0.326,2.156,0.326,3.288
		c0,4.541-1.844,8.667-4.826,11.646c-2.979,2.979-7.101,4.826-11.65,4.826s-8.672-1.848-11.65-4.826
		c-2.982-2.979-4.826-7.104-4.826-11.646c0-1.132,0.114-2.222,0.326-3.288c-0.505,0.077-1.01,0.114-1.498,0.114
		c-2.853,0-5.44-1.156-7.316-3.032v-0.004h-0.004l-0.021-0.021c-1.863-1.876-3.011-4.451-3.011-7.296
		c0-2.856,1.16-5.444,3.031-7.316l0.062-0.057c1.872-1.839,4.436-2.979,7.259-2.979c2.857,0,5.445,1.164,7.316,3.035
		c1.604,1.6,2.687,3.728,2.963,6.096c2.218-1.11,4.72-1.733,7.369-1.733S289.151,439.85,291.369,440.956L291.369,440.956z"/><path fill="#DB96B5" d="M299.557,450.259c0.26,0.068,0.524,0.122,0.785,0.162c0.407,0.065,0.847,0.098,1.307,0.098
		c2.307,0,4.395-0.932,5.904-2.441c1.505-1.506,2.441-3.597,2.441-5.9c0-2.303-0.937-4.387-2.446-5.9l0,0l0,0
		c-1.505-1.505-3.593-2.441-5.899-2.441c-2.3,0-4.387,0.937-5.896,2.441c-1.493,1.498-2.426,3.553-2.445,5.823
		c0.842,0.574,1.627,1.229,2.344,1.949C297.384,445.778,298.73,447.898,299.557,450.259L299.557,450.259z M274.693,442.096
		c-0.024-2.267-0.952-4.321-2.441-5.819c-1.514-1.505-3.601-2.441-5.9-2.441c-2.278,0-4.346,0.912-5.847,2.385l-0.053,0.057
		c-1.51,1.514-2.442,3.598-2.442,5.9c0,2.3,0.928,4.379,2.426,5.885l0.012,0.016h0.005c1.505,1.51,3.597,2.441,5.899,2.441
		c0.46,0,0.899-0.032,1.307-0.098c0.261-0.04,0.525-0.094,0.785-0.162c0.822-2.36,2.173-4.48,3.906-6.21
		C273.066,443.328,273.852,442.674,274.693,442.096L274.693,442.096z"/><path d="M289.807,465.485c-1.335,1.953-3.471,2.913-5.807,2.913c-2.315,0-4.48-0.977-5.807-2.913
		c-1.534-2.246-0.114-10.002,1.266-11.979c2.193-3.154,6.893-3.154,9.086,0C289.921,455.483,291.341,463.239,289.807,465.485
		L289.807,465.485z"/><path fill="#BBBDBF" d="M286.177,463.035c0.533,0,0.965,0.439,0.965,0.969s-0.432,0.961-0.965,0.961
		c-0.528,0-0.96-0.432-0.96-0.961S285.648,463.035,286.177,463.035L286.177,463.035z M281.823,463.035
		c0.533,0,0.964,0.439,0.964,0.969s-0.431,0.961-0.964,0.961c-0.529,0-0.961-0.432-0.961-0.961S281.294,463.035,281.823,463.035
		L281.823,463.035z"/><path fill="#59200D" d="M199.996,480c-5.363,0-10.055-1.717-13.518-4.216c-3.963-2.864-6.34-6.787-6.34-10.417
		c0-7.227,1.815-20.321,6.226-29.771c3.121-6.681,7.561-11.597,13.632-11.597s10.515,4.916,13.632,11.597
		c4.419,9.449,6.233,22.544,6.233,29.771c0,3.63-2.384,7.553-6.34,10.417C210.055,478.283,205.367,480,199.996,480L199.996,480z"/><path fill="#100605" d="M195.813,442.942c0.928,0,1.823,0.187,2.645,0.524c0.553,0.228,1.066,0.529,1.538,0.883
		c0.472-0.354,0.993-0.655,1.546-0.883c0.814-0.338,1.709-0.524,2.646-0.524c1.912,0,3.653,0.776,4.907,2.03v0.008
		c1.253,1.254,2.026,2.987,2.026,4.903c0,1.029-0.228,2.015-0.635,2.901c-0.252,0.546-0.578,1.059-0.952,1.522
		c1.058,0.936,1.945,2.026,2.596,3.23c0.806,1.489,1.254,3.158,1.254,4.899c0,3.23-1.522,6.145-3.979,8.244
		c-2.418,2.067-5.746,3.345-9.408,3.345c-3.658,0-6.987-1.277-9.4-3.345c-0.431-0.366-0.83-0.757-1.205-1.172
		c-0.049-0.049-0.098-0.105-0.138-0.163c-1.66-1.929-2.637-4.321-2.637-6.909c0-1.741,0.447-3.41,1.249-4.899
		c0.647-1.204,1.534-2.295,2.6-3.23c-0.382-0.464-0.708-0.977-0.96-1.522c-0.407-0.887-0.635-1.872-0.635-2.901
		c0-1.912,0.781-3.649,2.035-4.903l0.004-0.008C192.167,443.719,193.9,442.942,195.813,442.942L195.813,442.942z"/><path fill="#F7A251" d="M190.393,467.564c1.355-0.513,2.8-0.928,4.297-1.213c1.709-0.333,3.491-0.513,5.331-0.513
		c1.823,0,3.605,0.18,5.306,0.505c1.489,0.293,2.931,0.7,4.289,1.213c1.115-1.481,1.758-3.239,1.758-5.119
		c0-1.408-0.357-2.743-1.009-3.947c-0.676-1.262-1.685-2.385-2.914-3.288l-1.025-0.748l0.969-0.822
		c0.537-0.456,0.977-1.033,1.278-1.685c0.284-0.627,0.447-1.327,0.447-2.063c0-1.363-0.554-2.596-1.449-3.487l0,0
		c-0.895-0.891-2.124-1.448-3.482-1.448c-0.676,0-1.311,0.134-1.889,0.374c-0.594,0.244-1.139,0.61-1.595,1.063l-0.708,0.704
		l-0.708-0.704c-0.448-0.452-0.993-0.818-1.595-1.063c-0.57-0.24-1.208-0.374-1.88-0.374c-1.359,0-2.596,0.554-3.492,1.448
		c-0.887,0.892-1.44,2.124-1.44,3.487c0,0.736,0.163,1.437,0.448,2.06c0.301,0.655,0.741,1.232,1.278,1.688l0.96,0.83l-1.017,0.74
		c-1.237,0.903-2.238,2.026-2.922,3.288c-0.643,1.204-1.005,2.539-1.005,3.947C188.623,464.325,189.27,466.083,190.393,467.564
		L190.393,467.564z M208.118,469.151c-1.01-0.342-2.075-0.626-3.174-0.838c-1.563-0.302-3.223-0.464-4.924-0.464
		c-1.717,0-3.377,0.162-4.957,0.472c-1.099,0.212-2.157,0.488-3.174,0.839h0.008c2.059,1.766,4.928,2.856,8.098,2.856
		c3.174,0,6.038-1.091,8.105-2.856L208.118,469.151L208.118,469.151z"/><path fill="#D97C2F" d="M116,430.511c4.167,0,7.939,1.688,10.669,4.419c1.371,1.371,2.482,3.007,3.247,4.826
		c0.537-0.374,1.123-0.696,1.738-0.948c1.05-0.423,2.201-0.659,3.402-0.659c2.466,0,4.7,0.989,6.315,2.584
		c1.624,1.604,2.629,3.813,2.629,6.254c0,2.442-1.001,4.659-2.625,6.259c-1.583,1.563-3.752,2.539-6.145,2.584
		c0.688,1.351,1.066,2.8,1.066,4.306c0,3.771-2.34,7.157-6.116,9.574c-3.642,2.336-8.659,3.78-14.181,3.78
		c-5.518,0-10.535-1.444-14.181-3.78c-3.776-2.417-6.112-5.803-6.112-9.574c0-1.506,0.375-2.955,1.066-4.306
		c-2.393-0.041-4.565-1.021-6.144-2.584c-1.624-1.6-2.629-3.816-2.629-6.259c0-2.441,1.005-4.65,2.629-6.254
		c1.619-1.595,3.849-2.584,6.315-2.584c1.205,0,2.352,0.236,3.402,0.659c0.619,0.252,1.201,0.574,1.742,0.948
		c0.761-1.819,1.872-3.455,3.243-4.826C108.061,432.199,111.837,430.511,116,430.511L116,430.511z"/><path fill="#FDD0A9" d="M102.922,451.694c0,0.041-0.004,0.09-0.012,0.131v0.008v0.008v0.017l0,0l-0.008,0.017v0.008v0.004
		l-0.004,0.013l-0.004,0.008v0.008v0.017h-0.004l-0.004,0.017v0.008v0.004l-0.008,0.013v0.008v0.009l-0.008,0.016l0,0l-0.024,0.069
		l0,0c-0.073,0.175-0.195,0.33-0.362,0.447c-1.53,1.046-2.755,2.271-3.577,3.605c-0.765,1.241-1.188,2.597-1.188,4.009
		c0,3.043,1.981,5.835,5.184,7.886c3.337,2.136,7.967,3.459,13.099,3.459c5.135,0,9.766-1.323,13.099-3.459
		c3.207-2.051,5.188-4.843,5.188-7.886c0-1.412-0.423-2.768-1.188-4.009c-0.814-1.322-2.022-2.531-3.532-3.572
		c-0.276-0.167-0.468-0.464-0.484-0.811v-0.012v-0.004l-0.004-0.017v-0.004v-0.013v-0.016v-0.073
		c-0.02-1.636-0.691-3.117-1.766-4.195c-1.095-1.091-2.604-1.767-4.269-1.767c-1.665,0-3.178,0.676-4.269,1.767h-0.004l0,0
		c-1.09,1.091-1.766,2.604-1.766,4.269c0,0.558-0.447,1.009-1.005,1.009c-0.553,0-1.005-0.451-1.005-1.009
		c0-1.664-0.676-3.174-1.766-4.269c-1.091-1.091-2.604-1.767-4.269-1.767c-1.665,0-3.178,0.676-4.269,1.767l0,0h-0.004
		c-1.074,1.074-1.746,2.556-1.766,4.191v0.077V451.694L102.922,451.694z"/><path fill="#FFD0AB" d="M130.592,441.758c0.321,1.225,0.496,2.511,0.496,3.842v5.578c1.058,0.77,1.978,1.624,2.743,2.544
		c0.143,0.024,0.289,0.044,0.439,0.061l0.012,0.004c0.236,0.024,0.5,0.037,0.773,0.037c1.92,0,3.658-0.766,4.916-2.007
		c1.249-1.232,2.022-2.941,2.022-4.83c0-1.884-0.777-3.589-2.027-4.825c-1.253-1.237-2.991-2.007-4.911-2.007
		c-0.936,0-1.835,0.184-2.649,0.518C131.744,440.94,131.133,441.311,130.592,441.758L130.592,441.758z M98.173,453.722
		c0.765-0.92,1.685-1.774,2.743-2.544V445.6c0-1.331,0.171-2.617,0.492-3.842c-0.541-0.447-1.151-0.817-1.814-1.086
		c-0.814-0.334-1.709-0.518-2.649-0.518c-1.92,0-3.654,0.77-4.911,2.007c-1.25,1.236-2.022,2.941-2.022,4.825
		c0,1.889,0.773,3.598,2.022,4.83c1.257,1.241,2.991,2.007,4.911,2.007c0.277,0,0.537-0.013,0.777-0.037l0.012-0.004
		C97.88,453.766,98.026,453.746,98.173,453.722L98.173,453.722z"/><path fill="#541504" d="M113.066,461.103c1.107,0,2.002,0.896,2.002,1.998s-0.896,2.002-2.002,2.002
		c-1.103,0-2.002-0.899-2.002-2.002S111.963,461.103,113.066,461.103L113.066,461.103z M118.934,461.103
		c1.106,0,2.002,0.896,2.002,1.998s-0.896,2.002-2.002,2.002c-1.103,0-1.998-0.899-1.998-2.002S117.831,461.103,118.934,461.103
		L118.934,461.103z"/><path fill="#3B2314" d="M14.398 437.225l.066-.064c.853-1.453 1.873-2.819 3.089-4.047.024-.026.048-.053.074-.078 1.397-1.396 2.966-2.558 4.654-3.479l.023-.022c-1.668-1.635-3.481-2.872-5.417-3.768-2.108-.968-4.364-1.529-6.738-1.762-.549-.053-1.04.354-1.091.903-.006.077-.004.146.004.22.339 2.698.903 5.172 1.818 7.279C11.726 434.356 12.867 435.996 14.398 437.225zM53.848 424.005c-2.348.228-4.585.785-6.681 1.741l-.053.021c-1.937.896-3.751 2.133-5.416 3.768l.026.025c1.687.921 3.254 2.08 4.651 3.476.046.047.09.095.131.145 1.187 1.207 2.183 2.547 3.02 3.97l.078.075c1.53-1.229 2.673-2.868 3.515-4.817.912-2.1 1.473-4.565 1.815-7.255.012-.077.012-.158.008-.244C54.89 424.359 54.401 423.952 53.848 424.005z"/><path d="M43.464 430.617c1.042.716 2.018 1.521 2.909 2.417h.004.004c.773.772 1.481 1.606 2.124 2.498 1.188-1.001 2.095-2.336 2.779-3.914.688-1.591 1.164-3.438 1.485-5.461-1.665.261-3.255.717-4.761 1.408l-.057.024C46.357 428.322 44.856 429.323 43.464 430.617L43.464 430.617zM15.497 435.536c.641-.891 1.351-1.721 2.124-2.494l.002-.008h.002l.019-.017c.889-.887 1.857-1.688 2.893-2.4-1.392-1.294-2.895-2.295-4.49-3.027-1.521-.7-3.131-1.164-4.815-1.433.321 2.022.795 3.87 1.485 5.461C13.402 433.196 14.305 434.531 15.497 435.536L15.497 435.536z"/><path fill="#3B2314" d="M32,479.99c-5.43,0-10.534-2.112-14.373-5.947c-3.842-3.843-5.955-8.947-5.955-14.379v-12.251
		c0-5.396,2.088-10.472,5.881-14.3c0.024-0.026,0.048-0.053,0.074-0.078c3.838-3.836,8.942-5.948,14.373-5.948
		c5.429,0,10.535,2.112,14.375,5.948c0.046,0.047,0.09,0.095,0.131,0.145c3.756,3.82,5.822,8.867,5.822,14.233v12.251
		c0,5.428-2.116,10.533-5.957,14.374C42.483,477.897,37.399,479.99,32,479.99z"/><path d="M32,464.132c-1.17,0-4.5-0.175-6.86-1.074c-1.69-0.643-2.95-1.672-2.95-3.279c0-3.328,0.802-7.43,2.738-10.392
		c1.575-2.409,3.877-4.081,7.072-4.081c3.196,0,5.495,1.672,7.074,4.081c1.933,2.962,2.734,7.063,2.734,10.392
		c0,1.607-1.257,2.637-2.95,3.279C36.499,463.957,33.172,464.132,32,464.132L32,464.132z"/><path fill="#3B2314" d="M32,456.005c-2.206,0-4-1.795-4-4.002s1.794-4.002,4-4.002c2.207,0,4.002,1.795,4.002,4.002
		S34.207,456.005,32,456.005z"/><path fill="#6867AD" d="M349.608,365.169c-4.977-2.267-10.649-4.851-9.445-15.097c0.021-0.15,0.073-0.301,0.163-0.436
			c0.306-0.464,0.928-0.59,1.392-0.284c1.774,1.176,4.289,1.294,6.909,1.42c5.314,0.248,11.057,0.524,14.039,8.46
			c0.002,0.005,0.006,0.009,0.008,0.014c-0.761,0.426-1.48,0.935-2.132,1.541c-1.923,1.801-3.119,4.201-3.397,6.799
			c-0.723,0.62-1.354,1.346-1.894,2.134c0.006-0.011,0.002-0.028,0.009-0.038C354.649,367.469,352.241,366.369,349.608,365.169z
			 M395.834,350.072c-0.016-0.15-0.069-0.301-0.158-0.436c-0.306-0.464-0.928-0.59-1.388-0.284c-1.778,1.176-4.289,1.294-6.918,1.42
			c-5.314,0.248-11.052,0.524-14.034,8.46c-0.002,0.004-0.005,0.007-0.007,0.01c0.761,0.427,1.48,0.937,2.13,1.544
			c1.923,1.803,3.119,4.202,3.398,6.8c0.723,0.62,1.353,1.345,1.892,2.13c-0.005-0.011-0.001-0.028-0.008-0.038
			c0.61-2.209,3.016-3.309,5.652-4.509C391.366,362.902,397.047,360.318,395.834,350.072z"/><path fill="#6867AD" d="M364.099,386.802c-2.87-0.039-5.553-1.169-7.568-3.19c-2.063-2.059-3.197-4.801-3.197-7.728
			c0-1.67,0.364-3.271,1.083-4.757c0.654-1.35,1.593-2.565,2.729-3.541c0.278-2.598,1.475-4.998,3.397-6.799
			c2.039-1.897,4.688-2.94,7.463-2.94c2.78,0,5.428,1.044,7.454,2.939c1.923,1.803,3.119,4.202,3.398,6.8
			c1.139,0.978,2.078,2.195,2.729,3.541c0.72,1.481,1.086,3.084,1.086,4.757c0,2.892-1.108,5.604-3.124,7.651
			c-0.024,0.027-0.049,0.053-0.074,0.078c-2.041,2.042-4.758,3.173-7.656,3.189c-0.051,0.003-0.152,0.005-0.157,0.005
			c-1.318-0.021-2.55-0.029-3.655-0.029c-1.131,0-2.381,0.009-3.722,0.029c-0.01,0-0.021,0-0.03,0
			C364.201,386.808,364.15,386.806,364.099,386.802z"/><path fill="#8F94C4" d="M357.141 367.595c.284-2.678 1.538-5.07 3.409-6.813.131-.126.269-.248.407-.366-2.507-7.17-7.658-7.418-12.419-7.642-2.319-.109-4.558-.216-6.503-1.001-.342 7.593 4.306 9.709 8.407 11.577 2.661 1.217 5.135 2.34 6.299 4.602C356.871 367.83 357.002 367.713 357.141 367.595L357.141 367.595zM375.045 360.416c.143.118.276.24.411.366 1.867 1.742 3.121 4.135 3.409 6.813.135.118.269.235.399.357 1.163-2.262 3.63-3.385 6.295-4.602 4.102-1.868 8.749-3.984 8.402-11.577-1.94.785-4.183.892-6.498 1.001C382.703 352.998 377.547 353.246 375.045 360.416L375.045 360.416zM368.005 376.577c-1.127 0-2.197-.362-3.014-1.021-.865-.698-1.362-1.691-1.362-2.725 0-.968.518-1.808 1.367-2.252.083-.048.171-.09.262-.126.652-.257 1.474-.366 2.747-.366 1.291 0 2.088.109 2.752.376 1.001.409 1.616 1.314 1.616 2.368 0 1.024-.493 2.015-1.354 2.717C370.204 376.213 369.134 376.577 368.005 376.577z"/><path fill="#FFF" d="M371.715,377.957c-0.392,0-0.774-0.041-1.147-0.106l-0.044,0.015l4.159,3.463
			c0.179,0.188,0.432,0.301,0.708,0.301c0.558,0,1.005-0.451,1.005-1.005c0,0-0.014-4.601-0.021-4.651
			C375.179,377.164,373.536,377.957,371.715,377.957z"/><path fill="#8F94C4" d="M377.165,373.218c-0.464-0.297-1.087-0.158-1.38,0.306c-0.143,0.22-0.293,0.427-0.451,0.618
			c-0.835,1.014-1.872,1.611-2.946,1.782c-0.582,0.09-1.176,0.062-1.763-0.085c0.004-0.002,0.001-0.02,0.003-0.027
			c-0.755,0.488-1.663,0.766-2.623,0.766c-0.002,0-0.003,0-0.005,0v0.253l0.005-0.003l0.09,0.062
			c0.772,0.492,1.595,0.822,2.429,0.977l0.044-0.015c0.373,0.065,0.756,0.106,1.147,0.106c1.821,0,3.464-0.793,4.66-1.984
			c0.171-0.175,0.342-0.362,0.505-0.562c0.203-0.248,0.407-0.521,0.59-0.813C377.767,374.134,377.633,373.516,377.165,373.218z"/><path fill="#FFF" d="M364.287,377.957c0.392,0,0.774-0.041,1.147-0.106l0.044,0.015l-4.159,3.463
			c-0.179,0.188-0.432,0.301-0.708,0.301c-0.558,0-1.005-0.451-1.005-1.005c0,0,0.014-4.601,0.021-4.651
			C360.823,377.164,362.466,377.957,364.287,377.957z"/><path fill="#8F94C4" d="M358.837,373.218c0.464-0.297,1.087-0.158,1.38,0.306c0.143,0.22,0.293,0.427,0.451,0.618
			c0.835,1.014,1.872,1.611,2.946,1.782c0.582,0.09,1.176,0.062,1.763-0.085c-0.004-0.002-0.001-0.02-0.003-0.027
			c0.755,0.488,1.663,0.766,2.623,0.766c0.002,0,0.003,0,0.005,0v0.253l-0.005-0.003l-0.09,0.062
			c-0.772,0.492-1.595,0.822-2.429,0.977l-0.044-0.015c-0.373,0.065-0.756,0.106-1.147,0.106c-1.821,0-3.464-0.793-4.66-1.984
			c-0.171-0.175-0.342-0.362-0.505-0.562c-0.203-0.248-0.407-0.521-0.59-0.813C358.235,374.134,358.369,373.516,358.837,373.218z"/><path fill="#FFBDBD" d="M289.071,342.909c0.015-0.035,0.021-0.073,0.038-0.108c0.29-0.62,0.721-1.19,1.248-1.648
		c0.015-0.013,0.078-0.065,0.093-0.078c0.859-0.698,1.94-1.08,3.051-1.08c1.296,0,2.512,0.503,3.425,1.416s1.416,2.129,1.416,3.424
		c0,0.87-0.236,1.723-0.684,2.469c-0.027,0.051-0.057,0.103-0.078,0.138c-0.223,0.348-0.504,0.678-0.835,0.98
		c-0.029,0.026-0.062,0.045-0.092,0.068C294.772,345.926,292.14,343.958,289.071,342.909z M271.261,348.43
		c0.026,0.023,0.057,0.04,0.084,0.063c1.88-2.563,4.512-4.531,7.579-5.58c-0.011-0.027-0.016-0.055-0.027-0.081
		c-0.286-0.642-0.73-1.229-1.28-1.693c-0.867-0.737-1.976-1.144-3.122-1.144c-1.244,0-2.428,0.472-3.334,1.327
		c-0.014,0.013-0.072,0.075-0.086,0.089c-0.913,0.913-1.416,2.129-1.416,3.424c0,0.881,0.242,1.75,0.725,2.551
		C270.632,347.777,270.927,348.129,271.261,348.43z"/><path d="M277.07,343.646c-0.171-0.383-0.432-0.717-0.749-0.985c-0.488-0.415-1.131-0.667-1.827-0.667
		c-0.761,0-1.452,0.301-1.961,0.781l-0.045,0.049c-0.513,0.513-0.83,1.225-0.83,2.01c0,0.541,0.155,1.05,0.415,1.481
		c0.146,0.231,0.321,0.443,0.525,0.627l0.297-0.306v0.004C274.108,345.429,275.52,344.411,277.07,343.646L277.07,343.646z
		 M295.397,346.942c0.188-0.171,0.358-0.362,0.496-0.578l0.024-0.049c0.269-0.432,0.424-0.94,0.424-1.481
		c0-0.785-0.317-1.497-0.83-2.01l0,0c-0.513-0.513-1.221-0.83-2.011-0.83c-0.675,0-1.302,0.236-1.782,0.627l-0.049,0.04
		c-0.309,0.269-0.569,0.603-0.748,0.985c1.529,0.757,2.921,1.749,4.117,2.938l0.065,0.053L295.397,346.942L295.397,346.942z"/><path fill="#FFBDBD" d="M289.685,390.025h-1.131c-1.123,0-2.189-0.301-3.109-0.821c-0.537-0.31-1.025-0.692-1.448-1.132
		c-0.424,0.439-0.912,0.822-1.449,1.132c-0.919,0.521-1.978,0.821-3.104,0.821h-1.135l-5.99-0.049
		c-3.206-0.26-6.096-1.668-8.252-3.816l-0.021-0.024h-0.004l0,0c-2.4-2.409-3.89-5.722-3.89-9.384c0-2.84,0.895-5.469,2.417-7.633
		c1.424-2.027,3.409-3.639,5.729-4.615v-6.763l0.003,0.014c0-8.67,7.03-15.698,15.701-15.698c8.669,0,15.699,7.028,15.699,15.698
		l0.003-0.014v6.763c2.319,0.977,4.297,2.588,5.729,4.615c1.522,2.164,2.417,4.793,2.417,7.633c0,3.662-1.489,6.983-3.89,9.384
		c-2.156,2.156-5.054,3.581-8.276,3.841L289.685,390.025z"/><path fill="#BBBDBF" d="M278.308 390.025l-2.06 5.339c-.098.253-.293.464-.565.57-.509.195-1.086-.058-1.286-.57l-2.079-5.388L278.308 390.025zM295.683 389.977l-2.084 5.388c-.098.253-.293.464-.569.57-.505.195-1.082-.058-1.286-.57l-2.059-5.339L295.683 389.977z"/><path d="M270.503,383.831c-2.067,0-3.75-1.687-3.75-3.759c0-2.067,1.683-3.749,3.75-3.749c2.07,0,3.754,1.682,3.754,3.749
		C274.257,382.145,272.573,383.831,270.503,383.831z M301.247,380.072c0-2.067-1.683-3.749-3.75-3.749
		c-2.072,0-3.758,1.682-3.758,3.749c0,2.072,1.686,3.759,3.758,3.759C299.564,383.831,301.247,382.145,301.247,380.072z"/><g><path d="M224.808 345.54c-.027-.027-.055-.054-.083-.079-2.049-2.008-4.752-3.111-7.626-3.111-2.715 0-5.313 1.003-7.275 2.789-.016.014-.088.076-.104.091-1.638 1.504-2.776 3.509-3.253 5.681 5.791 2.137 10.272 7.067 11.764 13.153 2.477-.259 4.801-1.353 6.637-3.186 2.017-2.046 3.127-4.759 3.127-7.637C227.994 350.33 226.862 347.595 224.808 345.54zM193.537 350.909c-.482-2.192-1.645-4.218-3.32-5.735-2.002-1.821-4.601-2.824-7.319-2.824-2.912 0-5.646 1.132-7.703 3.188-2.053 2.058-3.184 4.794-3.184 7.703 0 2.872 1.104 5.573 3.11 7.621.025.028.051.056.078.082 1.765 1.77 4.085 2.86 6.571 3.119C183.26 357.977 187.744 353.046 193.537 350.909z"/><path fill="#D0D2D3" d="M214.472,356.588c-0.027-0.032-0.8-0.954-1.198-1.354c-3.397-3.394-8.089-5.497-13.273-5.497
		c-5.18,0-9.876,2.104-13.27,5.497c-0.399,0.399-1.189,1.339-1.224,1.381c-2.666,3.24-4.273,7.385-4.273,11.89v6.384
		c0,5.185,2.104,9.876,5.498,13.274c3.394,3.394,8.089,5.497,13.27,5.497c5.185,0,9.876-2.104,13.273-5.497
		c3.394-3.398,5.493-8.09,5.493-13.274v-6.384C218.767,363.988,217.15,359.833,214.472,356.588z"/><path d="M200 376.362c1.066 0 1.929.866 1.929 1.929 0 .695-.37 1.306-.92 1.647.029.603.289 1.152.688 1.555l.004.004.016.017c.428.415 1.018.676 1.669.676.655 0 1.253-.265 1.681-.692l.004-.004.017-.016c.419-.428.675-1.018.675-1.669 0-.554.452-1.005 1.005-1.005.554 0 1.006.451 1.006 1.005 0 1.2-.484 2.291-1.266 3.08l-.021.021-.004.004c-.794.79-1.893 1.286-3.097 1.286-1.2 0-2.291-.488-3.081-1.27l-.021-.017-.004-.004c-.098-.098-.191-.203-.281-.309-.082.098-.171.199-.26.288l-.021.021-.004.004c-.793.79-1.893 1.286-3.097 1.286-1.201 0-2.287-.488-3.081-1.27l-.021-.017-.004-.004c-.793-.793-1.282-1.892-1.282-3.101 0-.554.448-1.005 1.001-1.005s1.009.451 1.009 1.005c0 .659.26 1.254.692 1.685v.004l.016.017c.431.415 1.017.676 1.668.676.655 0 1.253-.265 1.681-.692l.004-.004.016-.016c.391-.399.643-.944.676-1.539-.554-.342-.92-.952-.92-1.647C198.075 377.229 198.938 376.362 200 376.362L200 376.362zM191.646 375.457c-1.673 0-3.194-.699-4.172-1.919-.999-1.245-1.356-2.933-.979-4.63.707-3.182 3.773-5.675 6.981-5.675 1.676 0 3.198.7 4.175 1.92.997 1.246 1.351 2.932.971 4.627C197.91 372.964 194.845 375.457 191.646 375.457zM208.358 375.457c-3.207 0-6.274-2.495-6.982-5.68-.377-1.698-.021-3.385.978-4.629.977-1.217 2.496-1.915 4.169-1.915 3.208 0 6.275 2.493 6.982 5.675.377 1.698.02 3.387-.979 4.632C211.548 374.759 210.029 375.457 208.358 375.457z"/></g><g><path fill="#D0D2D3" d="M119.617,394.689C118.636,395.512,117.371,396,116,396c-1.341,0-2.58-0.472-3.552-1.262l-0.067-0.049
		c-0.45-0.374-0.84-0.821-1.156-1.318c-0.317,0.497-0.708,0.944-1.16,1.318c-0.982,0.822-2.244,1.311-3.617,1.311
		c-1.396,0-2.678-0.505-3.668-1.351c-0.429-0.366-0.802-0.798-1.107-1.278c-0.297,0.464-0.659,0.888-1.074,1.245
		c-0.995,0.863-2.291,1.384-3.703,1.384c-1.563,0-2.977-0.627-4-1.652h0.002l-0.002-0.008c-1.021-1.018-1.654-2.434-1.654-3.996
		c0-0.472,0.057-0.952,0.157-1.465l0,0c0.041-0.203,0.087-0.407,0.145-0.627c-1.06-0.528-1.864-1.407-2.324-2.433
		c-0.521-1.164-0.6-2.531-0.106-3.825c0.438-1.147,1.264-2.051,2.273-2.597c0.157-0.089,0.315-0.162,0.48-0.235
		c-0.124-0.139-0.24-0.285-0.348-0.432l-0.059-0.081c-0.664-0.952-1.054-2.108-1.054-3.354c0-2.287,1.074-3.483,2.376-4.932
		c1.656-1.848,3.756-4.188,3.756-10.621c0-5.802,2.085-10.652,5.477-14.095c3.542-3.598,8.5-5.648,13.986-5.648
		s10.446,2.051,13.99,5.648c3.39,3.442,5.477,8.293,5.477,14.095c0,6.434,2.096,8.773,3.756,10.621
		c1.298,1.448,2.373,2.645,2.373,4.932c0,1.245-0.391,2.401-1.054,3.354l0,0h-0.004c-0.122,0.179-0.256,0.35-0.399,0.513
		c0.163,0.073,0.322,0.146,0.476,0.235c1.009,0.546,1.835,1.449,2.275,2.597c0.492,1.294,0.415,2.661-0.106,3.825
		c-0.459,1.025-1.265,1.904-2.323,2.433c0.053,0.212,0.098,0.407,0.138,0.603l0.004,0.024c0.102,0.513,0.159,0.993,0.159,1.465
		c0,1.538-0.61,2.922-1.599,3.947l-0.057,0.057c-1.021,1.025-2.438,1.652-4,1.652c-1.412,0-2.706-0.521-3.699-1.384
		c-0.419-0.357-0.781-0.781-1.078-1.245c-0.301,0.48-0.675,0.912-1.107,1.278c-0.989,0.846-2.271,1.351-3.666,1.351
		c-1.372,0-2.637-0.488-3.618-1.311c-0.452-0.374-0.842-0.821-1.16-1.318c-0.313,0.497-0.708,0.944-1.156,1.318l0,0H119.617
		L119.617,394.689z"/><path fill="#BC7831" d="M116,387.192c-0.678,0-1.348-0.225-1.887-0.634c-0.522-0.392-0.928-0.966-1.135-1.61
		c-0.812-2.585-1.639-5.709-2.332-8.809c-0.683-3.053-1.202-5.936-1.501-8.335c-0.088-0.722-0.132-1.4-0.132-2.026
		c0-2.13,0.484-3.862,1.439-5.15c0.986-1.33,2.493-2.158,4.358-2.396c0.392-0.043,0.779-0.068,1.189-0.068
		c0.409,0,0.795,0.025,1.157,0.064c1.9,0.242,3.408,1.071,4.393,2.401c0.955,1.291,1.439,3.022,1.439,5.146
		c0,0.642-0.043,1.323-0.128,2.023c-0.006,0.047-0.013,0.094-0.022,0.14c-0.302,2.378-0.814,5.213-1.485,8.21
		c-0.694,3.098-1.52,6.219-2.326,8.789c-0.218,0.665-0.623,1.234-1.147,1.628C117.34,386.97,116.672,387.192,116,387.192z"/><path d="M114.36,363.805c0.527,0,0.956,0.432,0.956,0.952c0,0.529-0.429,0.96-0.956,0.96c-0.529,0-0.957-0.431-0.957-0.96
		C113.403,364.236,113.831,363.805,114.36,363.805L114.36,363.805z M117.64,363.805c0.529,0,0.956,0.432,0.956,0.952
		c0,0.529-0.427,0.96-0.956,0.96c-0.525,0-0.955-0.431-0.955-0.96C116.685,364.236,117.114,363.805,117.64,363.805L117.64,363.805z"/></g><g><path fill="#4E2917" d="M55.433,345.241c0.004,0.053,0.004,0.102,0,0.154c-0.305,3.825-1.075,6.608-2.531,8.993
		c-1.331,2.181-3.21,3.987-5.823,5.925l-0.041-0.042c-1.545-3.076-3.991-5.621-7.01-7.262c1.001-2.435,2.657-4.352,4.788-5.759
		c2.588-1.717,5.876-2.678,9.546-2.938C54.912,344.272,55.392,344.691,55.433,345.241z M16.962,360.271
		c1.545-3.074,3.99-5.619,7.006-7.26c-1.001-2.436-2.652-4.353-4.789-5.761c-2.584-1.717-5.872-2.678-9.542-2.938
		c-0.553-0.041-1.034,0.378-1.07,0.928c-0.004,0.053-0.004,0.102,0,0.154c0.305,3.825,1.07,6.608,2.527,8.993
		c1.331,2.181,3.214,3.987,5.827,5.925L16.962,360.271z"/><path fill="#3F2318" d="M41.764,354.096c0.822-2.206,2.267-3.923,4.159-5.176c2.01-1.335,4.541-2.157,7.394-2.495
		c-0.333,2.897-0.997,5.074-2.128,6.922c-1.144,1.88-2.808,3.483-5.119,5.217C44.93,356.83,43.453,355.3,41.764,354.096
		L41.764,354.096z M17.927,358.563c1.147-1.741,2.612-3.255,4.309-4.468c-0.826-2.206-2.271-3.923-4.163-5.176
		c-2.01-1.335-4.541-2.157-7.39-2.495c0.333,2.897,0.993,5.074,2.124,6.922C13.955,355.227,15.615,356.834,17.927,358.563
		L17.927,358.563z"/><path fill="#4E2917" d="M48.836,367.809c0,0.159-0.037,0.306-0.102,0.439c-2.136,5.042-1.477,7.609-0.761,10.401
		c1.453,5.676,1.306,10.254-4.285,14.042c-3.02,2.043-7.15,3.309-11.691,3.309c-4.537,0-8.671-1.266-11.691-3.309
		c-5.697-3.861-5.733-8.374-4.281-14.042c0.72-2.8,1.375-5.376-0.781-10.446c-0.053-0.13-0.082-0.265-0.082-0.395l0,0v0.004
		c0-9.299,7.538-16.836,16.836-16.836s16.836,7.537,16.836,16.836V367.809z"/><path fill="#3F2318" d="M27.904,388.342c1.03,0,1.864,0.834,1.864,1.863c0,1.03-0.834,1.864-1.864,1.864
		c-1.029,0-1.864-0.834-1.864-1.864C26.041,389.176,26.875,388.342,27.904,388.342L27.904,388.342z M36.092,388.342
		c-1.03,0-1.864,0.834-1.864,1.863c0,1.03,0.834,1.864,1.864,1.864c1.029,0,1.863-0.834,1.863-1.864
		C37.955,389.176,37.121,388.342,36.092,388.342L36.092,388.342z"/><path fill="#9E846B" d="M37.898,378.563c0,1.632-0.659,3.109-1.726,4.175c-1.066,1.066-2.543,1.726-4.175,1.726
		c-1.628,0-3.105-0.659-4.171-1.726c-1.066-1.065-1.729-2.543-1.729-4.175c0-8.338,4.521-34.702,4.907-37.685
		c0.069-0.554,0.574-0.94,1.119-0.871c0.464,0.058,0.814,0.428,0.871,0.871C33.377,343.865,37.898,370.222,37.898,378.563z"/></g><g><path fill="#FFA74A" d="M355.063,285.361c-0.12,0-0.24-0.011-0.36-0.033c-6.033-1.104-8.068-4.686-9.704-7.563
		c-0.563-0.994-1.092-1.93-1.735-2.733c-0.454-0.568-0.564-1.338-0.288-2.01c0.276-0.673,0.896-1.143,1.618-1.227
		c0.662-0.077,1.315-0.116,1.94-0.116c1.64,0,3.177,0.269,4.569,0.799c2.5,0.949,4.63,2.761,6.33,5.384
		c0.328,0.507,0.41,1.135,0.223,1.709c-0.387,1.182-0.586,2.461-0.593,3.801c-0.003,0.591-0.268,1.151-0.724,1.529
		C355.979,285.201,355.525,285.361,355.063,285.361z M381.3,285.328c6.021-1.104,8.061-4.68,9.706-7.566
		c0.561-0.991,1.091-1.929,1.731-2.733c0.452-0.568,0.562-1.337,0.284-2.009c-0.276-0.671-0.896-1.14-1.617-1.224
		c-0.662-0.077-1.315-0.116-1.94-0.116c-1.64,0-3.177,0.269-4.563,0.798c-2.502,0.95-4.632,2.762-6.332,5.385
		c-0.326,0.504-0.409,1.128-0.226,1.699c0.381,1.187,0.582,2.473,0.597,3.821c0.007,0.59,0.272,1.146,0.728,1.521
		c0.361,0.298,0.812,0.457,1.272,0.457C381.06,285.361,381.18,285.351,381.3,285.328z"/><path fill="#8D5A25" d="M355.755,278.95c-1.514-2.336-3.316-3.825-5.363-4.603c-1.677-0.639-3.54-0.802-5.566-0.565
		c0.736,0.92,1.318,1.945,1.912,2.995c1.555,2.734,3.215,5.647,8.326,6.584C355.071,281.848,355.299,280.346,355.755,278.95
		L355.755,278.95z M380.247,278.95c0.448,1.396,0.676,2.897,0.692,4.411c5.11-0.937,6.767-3.85,8.325-6.584
		c0.594-1.05,1.176-2.075,1.908-2.995c-2.026-0.236-3.89-0.073-5.563,0.565C383.563,275.125,381.761,276.614,380.247,278.95
		L380.247,278.95z"/><path fill="#FFA74A" d="M368.003,311.99c-7.114,0-8.056-9.151-8.679-15.207c-0.134-1.281-0.245-2.343-0.387-3.2
		c-2.439-2.457-3.868-6.187-3.868-10.092c0-1.655,0.268-3.313,0.774-4.797c0.558-1.611,1.368-2.985,2.411-4.091
		c1.894-2.02,4.492-3.09,7.51-3.09c0.414,0,0.816,0.027,1.206,0.066c0.366,0.045,0.701,0.102,1.03,0.171
		c0.317-0.068,0.651-0.125,0.979-0.166c0.437-0.043,0.845-0.071,1.262-0.071c3.01,0,5.605,1.068,7.504,3.088
		c1.047,1.119,1.855,2.492,2.406,4.085c0.517,1.497,0.777,3.112,0.777,4.805c0,3.915-1.439,7.659-3.866,10.092
		c-0.151,0.935-0.265,2.039-0.385,3.2C376.055,302.839,375.113,311.99,368.003,311.99z"/><path d="M365.325 304.749c.529 0 .961.431.961.96 0 .537-.432.969-.961.969-.532 0-.964-.432-.964-.969C364.361 305.18 364.793 304.749 365.325 304.749L365.325 304.749zM370.673 304.749c.532 0 .964.431.964.96 0 .537-.432.969-.964.969-.529 0-.961-.432-.961-.969C369.712 305.18 370.144 304.749 370.673 304.749L370.673 304.749z"/><path fill="#8D5A25" d="M376.609,275.563c-0.434,0-0.866-0.142-1.224-0.418c-1.236-0.957-2.736-1.5-4.458-1.612
		c-0.662-0.044-1.26-0.413-1.596-0.986c-0.335-0.572-0.364-1.274-0.077-1.873c0.67-1.401,1.168-2.755,1.522-4.141
		c0.462-1.818,0.687-3.75,0.687-5.901c0-1.236,0.481-2.398,1.356-3.271c0.868-0.869,2.028-1.35,3.264-1.35
		c1.237,0,2.399,0.479,3.271,1.352c0.876,0.883,1.354,2.042,1.354,3.27c0,0.529-0.084,1.039-0.249,1.516
		c-0.146,0.432-0.367,0.85-0.655,1.238c-0.742,1.753-1.188,3.709-1.317,5.806c-0.083,1.317-0.046,2.716,0.11,4.157
		c0.086,0.797-0.312,1.568-1.012,1.96C377.281,275.479,376.944,275.563,376.609,275.563z M360.619,275.143
		c1.235-0.959,2.733-1.501,4.452-1.61c0.663-0.043,1.262-0.411,1.598-0.984s0.365-1.276,0.078-1.875
		c-0.672-1.405-1.169-2.758-1.518-4.138c-0.463-1.821-0.688-3.753-0.688-5.904c0-1.237-0.479-2.398-1.349-3.269
		c-0.871-0.872-2.034-1.353-3.275-1.353c-1.24,0-2.403,0.479-3.274,1.352c-0.871,0.871-1.351,2.032-1.351,3.27
		c0,0.477,0.072,0.953,0.214,1.416c0.014,0.045,0.033,0.1,0.055,0.152c0.144,0.401,0.343,0.779,0.627,1.167
		c0.749,1.765,1.196,3.725,1.33,5.827c0.082,1.293,0.044,2.69-0.114,4.154c-0.086,0.798,0.313,1.57,1.014,1.961
		c0.304,0.17,0.64,0.254,0.975,0.254C359.827,275.563,360.261,275.421,360.619,275.143z"/></g><g><path fill="#56331D" d="M294.688,289.953l0.001-0.033c-1.193,0.396-2.482-0.462-3.423-2.717c-0.935-2.241-0.452-4.138-0.443-4.17
		c-0.011-0.008-0.02-0.018-0.029-0.025v-0.001c-0.75-0.608-1.586-1.124-2.486-1.514c-1.322-0.578-2.783-0.899-4.309-0.899
		s-2.982,0.321-4.309,0.899c-0.911,0.395-1.756,0.915-2.514,1.532l0,0c0.008-0.006,0.017-0.011,0.025-0.017l-0.001,0.001
		c0.002-0.001,0.004-0.002,0.005-0.003v0.001c-0.01,0.008-0.018,0.017-0.027,0.024c0.007,0.025,0.493,1.926-0.443,4.171
		c-0.943,2.26-2.235,3.117-3.432,2.715l0.006,0.035l-0.029,0.265l-0.012,0.107l0.01,0.002c0,0-0.002,3.611,0.439,5.685l-0.008,0.007
		c0.529,2.242,1.407,3.849,2.262,5.405c0.707,1.302,1.402,2.571,1.797,4.154c0.424,1.725,1.23,3.194,2.287,4.228
		c1.088,1.07,2.441,1.685,3.943,1.685c1.506,0,2.857-0.614,3.947-1.685c1.059-1.033,1.859-2.503,2.287-4.228
		c0.391-1.583,1.086-2.853,1.799-4.154c0.85-1.559,1.729-3.166,2.258-5.412c0.441-2.073,0.439-5.685,0.439-5.685l-0.008-0.109
		L294.688,289.953z"/><path fill="#382924" d="M299.502,293.631c-1.449,1.119-2.895,2.238-5.213,2.381c0.441-2.073,0.439-5.685,0.439-5.685h6.389
		c0.553,0,1.004,0.452,1.004,1.005c0,0.424-0.26,0.785-0.631,0.932C300.795,292.626,300.145,293.131,299.502,293.631z
		 M273.268,290.325v0.002h-6.385c-0.557,0-1.004,0.452-1.004,1.005c0,0.424,0.26,0.785,0.627,0.932
		c0.699,0.362,1.35,0.867,1.994,1.367c1.447,1.119,2.889,2.238,5.207,2.381c0.001,0.002,0.001,0.004,0.002,0.007l0.008-0.007
		c-0.441-2.073-0.439-5.685-0.439-5.685L273.268,290.325z"/><path d="M273.236 292.337h-3.135c.961.729 1.953 1.404 3.256 1.616C273.301 293.448 273.26 292.907 273.236 292.337L273.236 292.337zM294.643 293.957c1.303-.212 2.295-.892 3.256-1.62h-3.139C294.74 292.911 294.699 293.448 294.643 293.957L294.643 293.957zM311.657 258.259l.004.004c-4.028 3.521-4.595 8.533-5.16 13.534-.814 7.219-1.64 14.415-11.701 18.111l-.102.01c-1.196.403-2.489-.454-3.433-2.715-.937-2.245-.45-4.146-.443-4.171-.01-.008-.018-.017-.027-.024v-.001c.009.008.02.013.028.021.509-1.408.785-3.129.436-5.033-.428-2.36-1.835-5.021-4.96-7.739-.419-.358-.464-.993-.102-1.408.264-.31.675-.415 1.037-.31h.004c.22.065.452.139.688.22l.005.005v-.005c3.377 1.196 5.843 3.602 7.234 6.479 1.123 2.327 1.546 4.964 1.184 7.535.721-.537 1.348-1.123 1.893-1.749.862-.993 1.538-2.1 2.096-3.28-2.323-2.624-2.45-6.299-2.567-9.879-.106-3.044-.208-6.019-1.767-7.78-.366-.411-.325-1.042.086-1.408.346-.309.842-.333 1.212-.089 3.052 2.002 3.622 5.473 4.18 8.878.239 1.445.476 2.881.911 4.11l.256-1.01c1.339-5.257 2.678-10.522 7.805-13.892.46-.301 1.083-.171 1.384.289C312.112 257.384 312.031 257.941 311.657 258.259zM256.343 258.259l-.004.004c4.028 3.521 4.595 8.533 5.16 13.534.814 7.219 1.64 14.415 11.701 18.111l.102.01c1.196.403 2.489-.454 3.433-2.715.937-2.245.45-4.146.443-4.171.01-.008.018-.017.027-.024v-.001c-.009.008-.02.013-.028.021-.509-1.408-.785-3.129-.436-5.033.428-2.36 1.835-5.021 4.96-7.739.419-.358.464-.993.102-1.408-.264-.31-.675-.415-1.037-.31h-.004c-.22.065-.452.139-.688.22l-.005.005v-.005c-3.377 1.196-5.843 3.602-7.234 6.479-1.123 2.327-1.546 4.964-1.184 7.535-.721-.537-1.348-1.123-1.893-1.749-.862-.993-1.538-2.1-2.096-3.28 2.323-2.624 2.45-6.299 2.567-9.879.106-3.044.208-6.019 1.767-7.78.366-.411.325-1.042-.086-1.408-.346-.309-.842-.333-1.212-.089-3.052 2.002-3.622 5.473-4.18 8.878-.239 1.445-.476 2.881-.911 4.11l-.256-1.01c-1.339-5.257-2.678-10.522-7.805-13.892-.46-.301-1.083-.171-1.384.289C255.888 257.384 255.969 257.941 256.343 258.259zM282.145 306.461c.492 0 .883.395.883.887 0 .488-.391.883-.883.883-.488 0-.884-.395-.884-.883C281.261 306.855 281.656 306.461 282.145 306.461L282.145 306.461zM285.855 306.461c.488 0 .887.395.887.887 0 .488-.398.883-.887.883s-.884-.395-.884-.883C284.972 306.855 285.367 306.461 285.855 306.461L285.855 306.461z"/></g><g><path fill="#F37A20" d="M223.728,277.597c-1.23,2.438-3.033,4.247-5.215,5.234c-0.216,0.099-0.446,0.146-0.678,0.162
		c-0.121-5.017-2.309-9.512-5.748-12.682c0.079-0.077,0.16-0.152,0.252-0.216c1.492-1.027,3.192-1.823,5.052-2.363
		c1.771-0.516,3.69-0.811,5.872-0.904c0.029-0.001,0.059-0.002,0.087-0.002c1.018,0,1.88,0.768,1.988,1.789
		C225.66,271.653,225.073,274.927,223.728,277.597z M187.914,270.313c-0.08-0.077-0.161-0.153-0.253-0.217
		c-1.494-1.029-3.192-1.824-5.049-2.364c-1.775-0.515-3.696-0.811-5.872-0.903c-0.029-0.001-0.058-0.002-0.087-0.002
		c-1.017,0-1.879,0.769-1.987,1.789c-0.322,3.037,0.265,6.312,1.61,8.98c1.228,2.438,3.029,4.248,5.21,5.235
		c0.217,0.099,0.448,0.146,0.68,0.162C182.288,277.977,184.475,273.483,187.914,270.313z"/><path fill="#F37A20" d="M200.002,302.389h11.976h0.002c3.246,0,5.877-2.632,5.877-5.878v-0.006v-5.514v-2.011v-5.514v-0.037
		c0-9.861-7.992-17.856-17.855-17.856H200c-9.862,0-17.855,7.995-17.855,17.856v0.037v5.514v2.011v5.514v0.006
		c0,3.246,2.632,5.878,5.878,5.878h0.002H200H200.002z"/><path d="M198.995 294.637v-.024-3.483c-.448-.317-.741-.838-.741-1.428 0-.961.781-1.746 1.746-1.746s1.746.785 1.746 1.746c0 .59-.293 1.11-.741 1.428v3.483.024.028l0 0v.028c.017.595.261 1.136.651 1.526l.004.008.017.013c.402.395.96.639 1.57.639.614 0 1.181-.252 1.583-.659.403-.403.655-.965.655-1.583 0-.554.451-1.005 1.005-1.005s1.005.451 1.005 1.005c0 1.176-.476 2.238-1.245 3.007-.765.766-1.831 1.241-3.003 1.241-1.164 0-2.218-.468-2.982-1.225l-.021-.017-.004-.008c-.082-.081-.163-.171-.24-.261-.077.09-.155.18-.236.261l-.008.008-.016.017c-.769.757-1.823 1.225-2.983 1.225-1.172 0-2.238-.476-3.003-1.241-.773-.769-1.245-1.831-1.245-3.007 0-.554.447-1.005 1.001-1.005.553 0 1.005.451 1.005 1.005 0 .618.252 1.18.655 1.583.407.407.968.659 1.587.659.61 0 1.164-.244 1.571-.639l.012-.013.004-.008c.391-.395.639-.932.651-1.526v-.028l0 0V294.637L198.995 294.637zM209.021 290.991c-.554 0-1.005-.452-1.005-1.006 0-.553.451-1.005 1.005-1.005h17.978c.554 0 1.001.452 1.001 1.005 0 .554-.447 1.006-1.001 1.006H209.021zM208.586 294.348c-.496-.24-.704-.838-.464-1.334.236-.497.838-.708 1.335-.469l12.997 6.308c.5.24.708.838.468 1.339-.24.496-.839.704-1.335.464L208.586 294.348zM178.417 300.655c-.5.24-1.099.032-1.339-.464-.236-.501-.028-1.099.468-1.339l13.001-6.308c.497-.239 1.095-.028 1.334.469.236.496.033 1.094-.468 1.334L178.417 300.655zM173.005 290.991c-.557 0-1.005-.452-1.005-1.006 0-.553.448-1.005 1.005-1.005h17.974c.554 0 1.005.452 1.005 1.005 0 .554-.452 1.006-1.005 1.006H173.005z"/><path fill="#F05E22" d="M186.527,271.743c-2.222,2.556-3.731,5.75-4.215,9.266c-1.896-0.858-3.304-2.438-4.249-4.313
		c-1.225-2.43-1.676-5.339-1.408-7.87c1.892,0.081,3.703,0.334,5.4,0.826C183.65,270.116,185.151,270.796,186.527,271.743
		L186.527,271.743z M217.688,281.009c1.896-0.858,3.309-2.441,4.253-4.313c1.225-2.43,1.676-5.339,1.407-7.87
		c-1.892,0.081-3.707,0.334-5.399,0.826c-1.595,0.464-3.101,1.144-4.477,2.091C215.694,274.299,217.204,277.493,217.688,281.009
		L217.688,281.009z"/><path d="M200.002 265.573H200c-1.258 0-2.484.134-3.669.381l2.68 15.315c.073.398.387.74.814.813.545.094 1.066-.269 1.164-.813l2.679-15.316C202.484 265.706 201.26 265.573 200.002 265.573zM208.669 267.823l-3.847 10.862c-.135.387-.024.834.309 1.106.428.354 1.059.289 1.408-.138l6.705-8.173C211.932 270.027 210.394 268.783 208.669 267.823zM186.795 271.44l6.698 8.161c.252.354.716.513 1.148.361.521-.183.797-.757.61-1.277l-3.17-8.948-.691-1.949C189.659 268.743 188.115 269.987 186.795 271.44z"/></g><g><path fill="#671A0A" d="M116,312c-3.477,0-10.326-4.021-15.196-12.387c-3.255-5.583-5.679-13.135-5.679-22.738
		c0-5.762,2.336-10.987,6.114-14.763l0.057-0.054C105.07,258.315,110.269,256,116,256c5.762,0,10.979,2.336,14.755,6.116
		l0.008-0.004c3.776,3.775,6.112,9.001,6.112,14.763c0,9.604-2.425,17.155-5.681,22.738C126.319,307.979,119.475,312,116,312
		L116,312z"/><path fill="#E98730" d="M112.716,289.521c-0.474-0.284-0.627-0.903-0.342-1.375c0.287-0.472,0.905-0.627,1.379-0.342
		c0.72,0.432,1.451,0.651,2.187,0.651c0.751,0,1.532-0.22,2.338-0.668c0.48-0.269,1.09-0.089,1.359,0.391
		c0.269,0.488,0.09,1.091-0.391,1.359c-0.757,0.415-1.505,0.691-2.246,0.83v1.155c0.228,0.139,0.497,0.253,0.79,0.351l0.049,0.016
		c0.773,0.253,1.701,0.351,2.572,0.221c0.813-0.122,1.579-0.448,2.1-1.042c0.122-0.139,0.236-0.302,0.333-0.48l0.008-0.008v-0.017
		l0.008-0.008l0.008-0.009v-0.008l0.008-0.017l0.008-0.008l0.016-0.041l0.008-0.008c1.514-3.133,2.645-7.3,2.645-12.614
		c0-3.215-0.195-6.108-1.473-8.105c-1.245-1.921-3.622-3.117-8.082-3.117c-4.458,0-6.842,1.196-8.08,3.117
		c-1.286,1.997-1.475,4.891-1.475,8.105c0,5.326,1.131,9.497,2.655,12.631l0.01,0.024l0.01,0.016l0.01,0.024l0.012,0.017l0.01,0.024
		c0.098,0.179,0.211,0.342,0.337,0.48c0.515,0.594,1.278,0.92,2.096,1.042c0.875,0.13,1.799,0.032,2.574-0.221l0.047-0.016
		c0.293-0.098,0.562-0.22,0.788-0.351v-1.131C114.218,290.263,113.459,289.97,112.716,289.521L112.716,289.521z M120.671,294.12
		c-1.18,0.171-2.425,0.032-3.467-0.31l-0.057-0.016c-0.415-0.146-0.797-0.317-1.147-0.521c-0.348,0.204-0.734,0.375-1.149,0.521
		l-0.057,0.016c-1.044,0.342-2.289,0.48-3.471,0.31c1.937,2.531,3.866,3.719,4.678,3.719
		C116.814,297.839,118.743,296.651,120.671,294.12L120.671,294.12z"/></g><g><path fill="#66A3CB" d="M42.46,309.25c-0.686,0-1.363-0.183-1.966-0.526c-0.04-0.021-0.078-0.043-0.116-0.066
		c-0.447-0.276-0.833-0.638-1.133-1.061h-2.772c-2.532,0-4.915-0.985-6.708-2.774c-1.796-1.8-2.784-4.184-2.784-6.715v-8.428
		c-0.003,0-0.005,0-0.008,0c-0.344,0-0.688-0.089-0.997-0.266c-1.581-0.908-2.961-2.184-3.993-3.689
		c-1.384-2.021-2.115-4.39-2.115-6.849v-15.902c0-1.067,0.417-2.11,1.148-2.885c0.027-0.03,0.054-0.061,0.083-0.089
		c0.792-0.801,1.853-1.242,2.987-1.242h15.825c1.086,0,2.115,0.41,2.898,1.152c0.033,0.031,0.065,0.063,0.096,0.097
		c0.771,0.764,1.225,1.852,1.225,2.967v15.902c0,2.46-0.73,4.829-2.112,6.848c-1.036,1.509-2.416,2.784-3.991,3.689
		c-0.309,0.178-0.653,0.267-0.997,0.267c-0.003,0-0.006,0-0.01,0v8.428c0,0.812,0.302,1.591,0.851,2.194
		c0.419,0.459,0.958,0.784,1.553,0.942c0.283-0.34,0.625-0.635,1.01-0.868c0.647-0.368,1.331-0.549,2.025-0.549
		c1.022,0,1.983,0.384,2.715,1.081c0.045,0.041,0.087,0.084,0.128,0.128c0.711,0.739,1.103,1.708,1.103,2.736v1.531
		c0,1.036-0.405,2.021-1.139,2.773C44.505,308.839,43.515,309.25,42.46,309.25z"/><path fill="#A5C3CB" d="M24.662,288.526c-0.035,0.039-0.063,0.082-0.101,0.119c-0.995,0.961-2.128,1.738-3.368,2.309
		c-1.587,0.728-3.289,1.095-5.062,1.095c-3.223,0-6.248-1.242-8.526-3.5c-0.062-0.057-0.119-0.117-0.173-0.182
		c-2.215-2.275-3.433-5.269-3.433-8.449v-6.843c0-3.222,1.248-6.25,3.514-8.536c0.035-0.039,0.075-0.082,0.097-0.104
		c2.283-2.254,5.309-3.495,8.521-3.495c0.919,0,1.814,0.098,2.659,0.29c0.432,0.095,0.876,0.231,1.32,0.387
		c-0.149,0.436-0.242,0.891-0.242,1.356v15.902c0,2.459,0.731,4.827,2.115,6.849C22.716,286.794,23.631,287.739,24.662,288.526z
		 M56.465,264.513c-0.024-0.026-0.049-0.052-0.074-0.077c-2.281-2.254-5.306-3.495-8.521-3.495c-0.917,0-1.812,0.098-2.643,0.287
		c-0.448,0.098-0.896,0.235-1.34,0.391c0.148,0.435,0.244,0.89,0.244,1.355v15.902c0,2.46-0.73,4.829-2.112,6.848
		c-0.736,1.071-1.651,2.017-2.68,2.804c0.036,0.04,0.064,0.084,0.103,0.121c1.003,0.964,2.136,1.741,3.369,2.308
		c1.582,0.725,3.284,1.093,5.059,1.093c3.244,0,6.29-1.261,8.579-3.55c0.038-0.038,0.073-0.076,0.107-0.117
		c2.223-2.277,3.445-5.277,3.445-8.464v-6.843C60.001,269.835,58.739,266.79,56.465,264.513z"/><path fill="#FFFA87" d="M39.548,294.585c-0.843-0.409-1.695-0.935-2.527-1.534v-3.371c0.003,0,0.006,0,0.01,0
		c0.344,0,0.688-0.089,0.997-0.267c0.45-0.259,0.879-0.556,1.294-0.871l2.768,2.978c0.653,0.701,0.716,1.768,0.15,2.543
		c-0.387,0.529-0.994,0.819-1.616,0.819c-0.288,0-0.578-0.062-0.852-0.191L39.548,294.585z M24.44,294.585
		c0.843-0.409,1.695-0.935,2.527-1.534v-3.371c-0.003,0-0.006,0-0.01,0c-0.344,0-0.688-0.089-0.997-0.267
		c-0.45-0.259-0.879-0.556-1.294-0.871l-2.768,2.978c-0.653,0.701-0.716,1.768-0.15,2.543c0.387,0.529,0.994,0.819,1.616,0.819
		c0.288,0,0.578-0.062,0.852-0.191L24.44,294.585z"/><path fill="#828898" d="M23.174,287.206c-0.435-0.464-0.834-0.96-1.194-1.48c-1.334-1.949-2.116-4.313-2.116-6.849v-15.223
		c-0.49-0.195-0.997-0.354-1.514-0.468c-0.698-0.159-1.443-0.24-2.214-0.24c-2.773,0-5.288,1.115-7.113,2.917l-0.047,0.054
		c-1.833,1.831-2.968,4.361-2.968,7.161v6.841c0,2.795,1.135,5.326,2.968,7.157l-0.004,0.008h0.004
		c1.827,1.832,4.362,2.963,7.16,2.963c1.514,0,2.944-0.325,4.224-0.911C21.404,288.655,22.356,287.996,23.174,287.206
		L23.174,287.206z M44.138,263.654v15.223c0,2.535-0.781,4.899-2.116,6.849c-0.358,0.521-0.761,1.017-1.196,1.48
		c0.822,0.79,1.77,1.449,2.816,1.93c1.277,0.586,2.71,0.911,4.224,0.911c2.795,0,5.331-1.131,7.162-2.963l0,0v-0.008
		c1.831-1.831,2.967-4.362,2.967-7.157v-6.841c0-2.8-1.136-5.33-2.967-7.161l-0.049-0.054c-1.823-1.802-4.337-2.917-7.113-2.917
		c-0.769,0-1.514,0.081-2.214,0.24C45.135,263.3,44.626,263.459,44.138,263.654L44.138,263.654z"/></g><g><path fill="#D0D2D3" d="M378.026,207.697c0-2.45-0.879-4.697-2.335-6.439c-1.482-1.767-3.567-3.016-5.931-3.436l-0.131-0.028
		c-0.375,0.493-0.965,0.806-1.629,0.806c-0.667,0-1.257-0.313-1.637-0.806l-0.113,0.028c-2.373,0.416-4.461,1.669-5.943,3.436
		c-1.457,1.742-2.336,3.989-2.336,6.439v9.991h20.055V207.697z"/><path fill="#56331D" d="M380.097,177.009c-0.017-0.017-0.034-0.034-0.052-0.05c-3.22-3.199-7.494-4.96-12.044-4.96
		c-4.57,0-8.865,1.777-12.095,5.004c-0.031,0.032-0.062,0.064-0.092,0.098c-3.17,3.214-4.915,7.471-4.915,12v22.992
		c0,1.492,0.607,2.95,1.66,3.995c0.839,0.839,1.935,1.404,3.086,1.587c0.105,0.017,0.211,0.025,0.315,0.025h2.012v-2v-0.801v-7.164
		c0-2.449,0.881-4.693,2.338-6.437c1.486-1.77,3.572-3.021,5.942-3.438c0.047-0.008,0.096-0.013,0.139-0.013
		c0.243-0.653,0.872-1.119,1.61-1.119c0.74,0,1.363,0.466,1.61,1.121c0.047,0,0.094,0.003,0.141,0.011
		c2.37,0.417,4.455,1.67,5.938,3.438c1.457,1.743,2.336,3.988,2.336,6.437v7.164h-0.001v2.802h2.012v0
		c0.104,0,0.206-0.008,0.31-0.024c1.154-0.183,2.252-0.747,3.087-1.583c1.059-1.052,1.665-2.51,1.665-4v-22.992
		C385.1,184.53,383.322,180.235,380.097,177.009z"/><path d="M378.027,207.735c0-0.007-0.001-0.015-0.001-0.022v7.186h0.001V207.735z"/><path d="M394.339 199.354c0-2.799-1.033-5.481-2.911-7.554-1.57-1.735-3.604-2.922-5.883-3.43-.145-.032-.29-.048-.436-.048-.004 0-.007.001-.011.001v-.001h-.037c.012.26.038.518.038.78v22.992c0 1.49-.606 2.948-1.665 4-.835.835-1.933 1.399-3.087 1.583-.104.017-.206.024-.31.024v0h-2.012v-.012h-6.129v.012h.011c-.003.09-.01.179 0 .27.27 2.539 1.414 4.933 3.222 6.74 2.133 2.122 4.957 3.288 7.956 3.288 2.964 0 5.755-1.139 7.871-3.208.029-.026.058-.053.085-.08 2.089-2.088 3.253-4.858 3.288-7.814.003-.044.005-.09.005-.136l.007-4.563C394.352 207.549 394.364 201.184 394.339 199.354zM357.973 217.688v.012h-2.012c-.104 0-.21-.008-.315-.025-1.151-.184-2.247-.748-3.086-1.587-1.053-1.045-1.66-2.503-1.66-3.995v-22.992c0-.262.026-.52.038-.78h-.038v.001c-.004 0-.007-.001-.011-.001-.146 0-.291.016-.436.048-2.278.508-4.313 1.695-5.883 3.43-1.878 2.073-2.911 4.755-2.911 7.554-.025 1.83-.013 8.196-.003 12.844l.007 4.563c0 .046.002.091.005.136.035 2.956 1.199 5.726 3.288 7.814.027.027.056.054.085.08 2.116 2.069 4.907 3.208 7.871 3.208 2.999 0 5.823-1.167 7.956-3.288 1.808-1.808 2.952-4.202 3.222-6.74.01-.091.003-.18 0-.27h.011v-.012H357.973zM368.001 198.6c.648 0 1.222-.301 1.598-.773-.253-.641-.866-1.097-1.597-1.097-.731 0-1.354.459-1.602 1.103C366.781 198.3 367.353 198.6 368.001 198.6z"/></g><g><path fill="#001738" d="M268.983,220.93c-0.635,0-1.252-0.302-1.637-0.849c-1.516-2.155-2.317-4.601-2.317-7.071
		c0-4.65,2.729-11.278,6.638-16.117c3.062-3.78,6.536-6.156,10.05-6.874c0.013-0.002,0.096-0.02,0.111-0.023
		c0.726-0.14,1.456-0.211,2.17-0.211c0.711,0,1.439,0.071,2.165,0.211c0.023,0.004,0.115,0.023,0.13,0.027
		c3.501,0.715,6.976,3.092,10.03,6.869c3.909,4.842,6.639,11.47,6.639,16.119c0,2.468-0.802,4.912-2.317,7.067
		c-0.385,0.547-1.002,0.849-1.637,0.849c-0.282,0-0.567-0.06-0.837-0.184c-1.947-0.898-4.071-1.601-6.313-2.087
		c-2.528-0.553-5.172-0.833-7.859-0.833c-2.688,0-5.332,0.28-7.857,0.833c-2.253,0.494-4.38,1.197-6.32,2.093
		C269.55,220.87,269.265,220.93,268.983,220.93z"/><path fill="#808184" d="M299.008,220.926c-0.282,0-0.567-0.06-0.837-0.184c-1.947-0.898-4.071-1.601-6.313-2.087
		c-2.528-0.553-5.172-0.833-7.859-0.833c-2.688,0-5.332,0.28-7.857,0.833c-2.253,0.494-4.38,1.197-6.32,2.093
		c-0.271,0.124-0.556,0.184-0.837,0.184c-0.237,0-0.467-0.055-0.688-0.137c0.067,0.391,0.236,0.762,0.521,1.054
		c0.582,0.601,1.194,1.144,1.869,1.658c0.637,0.486,1.336,0.948,2.08,1.372c0.004,0.002,0.081,0.05,0.117,0.07
		c3.25,1.817,7.094,2.777,11.116,2.777c4.019,0,7.861-0.96,11.111-2.777c0.021-0.012,0.073-0.043,0.076-0.044
		c0.747-0.426,1.459-0.895,2.116-1.396c0.669-0.508,1.299-1.067,1.874-1.661c0.285-0.294,0.454-0.666,0.521-1.058
		C299.476,220.87,299.245,220.926,299.008,220.926z"/><path fill="#001738" d="M281.717 190.018c.013-.002.096-.02.111-.023.726-.14 1.456-.211 2.17-.211.711 0 1.439.071 2.165.211.023.004.115.023.13.027.195.04.391.104.586.155l-1.929-17.3c-.041-.445-.391-.82-.847-.871-.529-.057-1.001.321-1.059.848l-1.938 17.325C281.311 190.126 281.514 190.06 281.717 190.018zM308.242 226.539c-.899-1.457-2.092-2.808-3.524-4.033v.004l-.004-.004c-1.158-.981-2.472-1.88-3.911-2.673-.054.081-.103.164-.158.243-.243.346-.584.581-.959.716-.065.39-.227.762-.51 1.054-.575.593-1.205 1.152-1.874 1.661-.657.5-1.369.97-2.116 1.396-.003.001-.055.033-.076.044-.048.026-.098.049-.146.075 2.14.299 4.209.688 6.186 1.154h.004c2.124.505 4.114 1.099 5.945 1.766.269.094.569.073.83-.085C308.38 227.581 308.519 226.991 308.242 226.539zM272.882 224.948c-.036-.02-.113-.068-.117-.07-.744-.424-1.443-.886-2.08-1.372-.675-.514-1.287-1.057-1.869-1.658-.288-.296-.458-.673-.522-1.07-.368-.136-.707-.356-.946-.697-.056-.079-.104-.161-.157-.241-1.417.78-2.71 1.657-3.852 2.623l-.061.049c-1.425 1.212-2.608 2.56-3.508 4.008l-.008.021c-.155.24-.191.545-.09.83.179.497.732.753 1.229.574 1.823-.667 3.817-1.257 5.949-1.766 1.97-.466 4.043-.855 6.185-1.151C272.984 224.999 272.932 224.976 272.882 224.948z"/></g><g><path fill="#0E83C6" d="M224.956 221.504c-.273-.814-.859-1.688-1.738-2.594-1.122-1.157-2.62-2.251-4.211-3.075-1.072-.56-2.148-.974-3.111-1.197-.147-.034-.297-.051-.446-.051-.003 0-.007.001-.01.001v7.042 1.206c0 .658-.136 1.283-.361 1.863.122.023.242.055.371.055h6.938c.633 0 1.15-.107 1.581-.328.588-.294 1.006-.832 1.105-1.37C225.19 222.569 225.149 222.054 224.956 221.504zM188.594 184.067c1.579 1.727 3.479 3.047 5.492 3.858 1.85-.767 3.85-1.168 5.913-1.168 2.066 0 4.07.402 5.92 1.17 2.014-.811 3.913-2.132 5.489-3.861 2.158-2.362 3.508-5.291 3.801-8.246l.378-3.817-3.326 1.91c-1.235.709-2.692 1.22-4.104 1.714-2.863 1.007-6.303 2.217-8.153 5.553-1.843-3.332-5.271-4.537-8.161-5.554-1.411-.495-2.869-1.008-4.098-1.713L184.414 172l.384 3.822C185.094 178.775 186.442 181.703 188.594 184.067z"/><path fill="#01AAE1" d="M213.465,223.604c-0.701,0-1.366-0.374-1.722-1.008c-0.594-1.058-1.341-2.04-2.216-2.918
		c-2.545-2.542-5.931-3.943-9.529-3.943c-3.599,0-6.982,1.401-9.526,3.945c-0.868,0.868-1.615,1.851-2.219,2.921
		c-0.356,0.631-1.02,1.003-1.719,1.003c-0.166,0-0.335-0.021-0.502-0.065c-0.867-0.228-1.472-1.012-1.472-1.909v-19.438
		c0-4.121,1.607-7.997,4.524-10.913c2.916-2.916,6.792-4.522,10.916-4.522c4.128,0,8.006,1.606,10.919,4.524
		c2.914,2.909,4.521,6.785,4.521,10.911v19.438c0,0.898-0.605,1.683-1.476,1.91C213.799,223.584,213.631,223.604,213.465,223.604z"/><path fill="#C2E1F3" d="M213.964,223.54c-0.165,0.044-0.333,0.064-0.499,0.064c-0.701,0-1.366-0.374-1.722-1.008
		c-0.594-1.058-1.341-2.04-2.216-2.918c-2.545-2.542-5.931-3.943-9.529-3.943c-3.599,0-6.982,1.401-9.526,3.945
		c-0.868,0.868-1.615,1.851-2.219,2.921c-0.356,0.631-1.02,1.003-1.719,1.003c-0.166,0-0.335-0.021-0.502-0.065
		c-0.867-0.228-1.472-1.012-1.472-1.909v1.206c0,2.848,2.318,5.164,5.168,5.164h20.544c2.85,0,5.168-2.316,5.168-5.164v-1.206
		C215.439,222.528,214.834,223.313,213.964,223.54z"/><path fill="#03C" d="M186.354,223.581c-0.107-0.01-0.215-0.014-0.323-0.042C186.139,223.567,186.247,223.571,186.354,223.581
			L186.354,223.581z"/><path fill="#0E83C6" d="M184.559,222.836v-1.206v-7.042c-0.002,0-0.003-0.001-0.005-0.001c-0.149,0-0.299,0.017-0.447,0.051
			c-0.963,0.224-2.039,0.638-3.105,1.194c-1.602,0.829-3.102,1.923-4.225,3.082c-0.87,0.9-1.451,1.767-1.73,2.572
			c-0.204,0.588-0.24,1.113-0.11,1.604c0.147,0.569,0.535,1.049,1.063,1.319c0.439,0.231,0.966,0.344,1.611,0.344h6.942
			c0.128,0,0.246-0.032,0.367-0.055C184.695,224.119,184.559,223.495,184.559,222.836z"/></g><g><path fill="#C78201" d="M101.518 203.37c-.136.021-.254.039-.254.039-.503.058-.983.086-1.466.086-3.151 0-6.114-1.227-8.34-3.454l-.148-.152c-2.135-2.208-3.31-5.109-3.31-8.193 0-3.084 1.174-5.986 3.31-8.193l.148-.152c2.225-2.226 5.187-3.452 8.34-3.452 2.786 0 5.489.987 7.611 2.78 1.811 1.532 3.129 3.61 3.756 5.877-5.617 1.992-9.647 7.337-9.647 13.637v1.164V203.37zM140.549 183.357l-.136-.132c-2.208-2.146-5.117-3.326-8.211-3.326-2.789 0-5.493.987-7.612 2.78-1.809 1.529-3.128 3.608-3.755 5.878 5.616 1.993 9.644 7.337 9.644 13.636v1.164.012c.063.009.134.022.192.029.491.065 1.005.099 1.531.099 3.093 0 6.001-1.181 8.211-3.328l.136-.132c2.225-2.228 3.451-5.189 3.451-8.339C144 188.546 142.774 185.585 140.549 183.357z"/><path fill="#C78201" d="M115.999,218.032h9.573h-0.008c2.714,0,4.915-2.201,4.915-4.915v0.008v-9.769v-1.164
		c0-7.998-6.483-14.48-14.48-14.48c-7.998,0-14.481,6.483-14.481,14.48v1.164v9.769v-0.008c0,2.714,2.201,4.915,4.915,4.915h-0.008
		H115.999z"/><path d="M128.438 209.762l-2.231.671c-.529.159-1.091-.143-1.25-.671-.159-.533.143-1.091.676-1.25l2.804-.847 2.01-.606 10.008-3.016c.533-.159 1.091.146 1.25.676.159.529-.142 1.091-.675 1.25l-10.583 3.187L128.438 209.762zM128.01 214.625l-2.54-1.274c-.493-.248-.697-.847-.447-1.343.248-.492.85-.696 1.343-.448l2.072 1.042 1.986.998 9.167 4.603c.492.248.691.851.447 1.343-.248.497-.851.696-1.343.448l-8.885-4.461L128.01 214.625zM102.189 215.533l-8.881 4.461c-.496.248-1.095.049-1.343-.448-.247-.492-.047-1.095.447-1.343l9.162-4.603 1.987-.998 2.074-1.042 0 0c.494-.248 1.097-.044 1.343.448.247.497.047 1.095-.447 1.343l-2.54 1.278L102.189 215.533zM101.549 209.155l-10.58-3.187c-.531-.159-.832-.72-.674-1.25.159-.529.717-.834 1.248-.676l10.006 3.016 2.011.606 2.806.847c.533.159.834.716.676 1.25-.16.529-.719.83-1.249.671l-2.234-.671L101.549 209.155z"/><path fill="#FCA3B5" d="M122.689,189.342c1.307,0.684,2.494,1.561,3.524,2.592c2.437,2.436,4.008,5.737,4.208,9.406
		c0.17,0.029,0.342,0.057,0.512,0.078c0.395,0.053,0.822,0.081,1.266,0.081c2.706,0,5.156-1.099,6.922-2.867l0.008-0.006
		c1.766-1.768,2.865-4.218,2.865-6.924s-1.1-5.156-2.865-6.924l-0.008-0.006c-1.766-1.768-4.216-2.865-6.922-2.865
		c-2.413,0-4.618,0.869-6.319,2.307C124.33,185.525,123.19,187.312,122.689,189.342L122.689,189.342z M101.578,201.34
		c0.202-3.668,1.773-6.97,4.208-9.406c1.032-1.032,2.22-1.909,3.526-2.592c-0.5-2.03-1.643-3.817-3.19-5.127
		c-1.703-1.438-3.908-2.307-6.319-2.307c-2.704,0-5.156,1.097-6.924,2.865l-0.004,0.006c-1.77,1.768-2.867,4.218-2.867,6.924
		s1.098,5.156,2.867,6.924l0.004,0.006c1.768,1.768,4.22,2.867,6.924,2.867c0.436,0,0.848-0.028,1.236-0.073l0.029-0.008
		C101.239,201.397,101.408,201.369,101.578,201.34L101.578,201.34z"/><path d="M124.874,214.578c-0.762-1.121-1.698-2.116-2.808-2.887c-1.242-0.863-2.678-1.465-4.231-1.73
		c-0.307-0.625-0.944-1.054-1.68-1.083v-0.011h-0.156c-0.77,0-1.439,0.448-1.756,1.095c-1.553,0.265-2.99,0.867-4.231,1.73
		c-1.109,0.771-2.045,1.766-2.808,2.887c-1.186,1.745,0.75,2.438,1.468,1.427c0.635-0.892,1.476-1.966,2.485-2.666
		c0.959-0.667,2.068-1.14,3.264-1.368c0.356,0.484,0.93,0.802,1.578,0.802c0.007,0,0.014-0.001,0.021-0.002h0.037
		c0.007,0.001,0.014,0.002,0.021,0.002c0.007,0,0.013-0.002,0.02-0.002h0.057v-0.007c0.615-0.025,1.159-0.328,1.501-0.792
		c1.196,0.228,2.305,0.7,3.264,1.368c1.009,0.7,1.851,1.774,2.485,2.666C124.125,217.016,126.06,216.323,124.874,214.578z"/></g><g><path fill="#6D6E70" d="M13.415,198.109l-0.568-0.308c-2.917-1.581-5.177-3.943-6.716-7.021c-1.628-3.259-2.355-7.204-2.102-11.407
		l0.098-1.626l1.612-0.234c1.342-0.195,2.651-0.293,3.89-0.293c2.288,0,4.427,0.336,6.358,1c2.904,0.999,5.426,2.764,7.497,5.247
		l0.253,0.302C18.232,186.477,14.255,191.79,13.415,198.109z M59.93,179.374l-0.098-1.626l-1.612-0.234
		c-1.342-0.195-2.651-0.293-3.89-0.293c-2.287,0-4.427,0.336-6.358,1c-2.904,0.999-5.426,2.764-7.497,5.247l-0.241,0.288
		c5.514,2.701,9.5,8.013,10.348,14.334l0.53-0.288c2.917-1.581,5.177-3.943,6.716-7.021
		C59.457,187.521,60.184,183.577,59.93,179.374z"/><path fill="#404041" d="M50.203,196.04c2.643-1.434,4.586-3.585,5.874-6.157v0.002l0.004-0.002
		c1.511-3.026,2.118-6.646,1.894-10.389c-3.507-0.509-6.615-0.307-9.311,0.619c-2.558,0.879-4.762,2.422-6.611,4.633
		c1.165,0.739,2.24,1.603,3.21,2.574C47.628,189.688,49.368,192.685,50.203,196.04L50.203,196.04z M21.947,184.749
		c-1.847-2.213-4.053-3.756-6.611-4.635c-2.694-0.926-5.802-1.128-9.309-0.619c-0.226,3.743,0.381,7.362,1.894,10.391
		c1.285,2.57,3.23,4.721,5.879,6.157c0.833-3.356,2.571-6.354,4.938-8.721C19.709,186.35,20.785,185.488,21.947,184.749
		L21.947,184.749z"/><path fill="#BBBDBF" d="M50.77,200.602c0-10.365-8.403-18.769-18.77-18.769c-10.366,0-18.77,8.404-18.77,18.769l0-0.029v1.604
		v1.759v2.03v6.646v2.12v1.175v0.745c0,1.691,0.692,3.232,1.803,4.346c1.113,1.113,2.654,1.806,4.346,1.806h25.241
		c1.675,0,3.201-0.685,4.317-1.785l0.021-0.021l0.004-0.004h0.005c1.113-1.117,1.801-2.654,1.801-4.342v-0.671v-1.249v-2.12v-6.646
		v-2.03v-1.907v-1.457L50.77,200.602z"/><path fill="#404041" d="M39.568 207.352c-.554.065-1.055-.325-1.125-.88-.065-.55.326-1.055.88-1.12l18.292-2.257c.554-.069 1.055.326 1.124.876.065.554-.326 1.059-.88 1.125L39.568 207.352zM39.132 210.859c-.529-.171-.815-.741-.639-1.267.171-.525.741-.811 1.271-.64l17.486 5.821c.525.171.814.741.639 1.266-.175.53-.742.815-1.271.64L39.132 210.859zM7.38 216.68c-.523.175-1.094-.11-1.269-.64-.173-.525.114-1.095.639-1.266l17.488-5.821c.527-.171 1.096.114 1.271.64.173.525-.112 1.095-.64 1.267L7.38 216.68zM6.139 205.096c-.552-.066-.947-.571-.88-1.125.07-.55.573-.945 1.125-.876l18.294 2.257 0 0c.552.065.943.57.876 1.12-.068.555-.569.945-1.123.88L6.139 205.096zM33.01 209.849v3.866l-.004.061c.041.55.35 1.071.811 1.507.529.501 1.254.884 2.044 1.087.787.204 1.629.229 2.391.017.786-.216 1.499-.696 1.979-1.499.285-.477.904-.635 1.381-.351.477.286.631.904.346 1.381-.774 1.295-1.914 2.065-3.173 2.412-1.112.306-2.318.273-3.43-.012-1.112-.29-2.146-.843-2.917-1.568-.159-.15-.306-.306-.44-.468-.134.163-.281.318-.436.468-.771.725-1.811 1.279-2.92 1.568-1.11.285-2.316.318-3.43.012-1.259-.347-2.399-1.116-3.175-2.412-.283-.477-.126-1.095.349-1.381.475-.285 1.095-.126 1.381.351.48.803 1.193 1.283 1.981 1.499.762.212 1.603.187 2.389-.017.791-.203 1.515-.586 2.045-1.087.464-.44.772-.965.811-1.523l-.002-.045v-3.866c-.695-.362-1.169-1.092-1.169-1.931 0-1.202.976-2.175 2.177-2.175 1.202 0 2.18.973 2.18 2.175C34.179 208.757 33.703 209.487 33.01 209.849L33.01 209.849z"/></g><g><path fill="#A6A8AB" d="M386.333,107.226c-0.207-2.616-0.939-5.214-2.034-7.686c-0.167-0.375-0.533-0.601-0.92-0.601h-9.098
		c-0.48,0-0.854,0.334-0.969,0.749h-0.008c-0.74,1.9-1.351,3.898-1.827,5.896h0.004c-0.427,1.792-0.752,3.584-0.98,5.306
		l0.006,0.021c1.913,0.45,3.675,1.403,5.105,2.812l0.071,0.071c0.097,0.097,0.182,0.203,0.274,0.303l0.02-0.006
		c0.48-0.513,0.956-1.05,1.433-1.611l0.049-0.051c0.398-0.476,0.798-0.972,1.192-1.483c1.563,1.88,3.389,3.328,5.497,4.113
		c0.553,0.208,1.123-0.11,1.306-0.651C386.264,112.042,386.521,109.62,386.333,107.226z"/><path fill="#BBBDBF" d="M367.999,142.739c-0.578,0.346-1.204,0.63-1.872,0.842l0,0v0.004c-0.851,0.269-1.758,0.415-2.701,0.415
		c-2.462,0-4.695-1.001-6.315-2.616l0,0c-1.18-1.18-2.034-2.694-2.408-4.386l0,0c-0.649-3.685,0.582-6.235,2.435-8.347
		c-0.008-2.341,0-7.18,0-7.18c0-2.895,1.129-5.622,3.18-7.678l0.071-0.071c2.038-2.007,4.741-3.113,7.611-3.113h0.002
		c2.87,0,5.573,1.106,7.611,3.113l0.071,0.071c2.051,2.057,3.18,4.783,3.18,7.678c0,0,0.008,4.839,0,7.18
		c1.853,2.111,3.084,4.662,2.435,8.347l0,0c-0.374,1.692-1.229,3.206-2.408,4.386l0,0c-1.62,1.615-3.854,2.616-6.315,2.616
		c-0.943,0-1.851-0.146-2.701-0.415v-0.004l0,0c-0.668-0.212-1.294-0.497-1.872-0.842H367.999z"/><path fill="#F687C9" d="M375.652,100.948c0.964,2.876,2.222,5.576,3.784,7.749c1.273,1.764,2.75,3.184,4.435,4.052
		c0.468-1.764,0.603-3.568,0.46-5.367c-0.171-2.175-0.744-4.343-1.611-6.435H375.652L375.652,100.948z"/><path fill="#EC297B" d="M363.702,135.744c0-0.553,0.447-1.005,1.001-1.005c0.558,0,1.009,0.452,1.009,1.005
		c0,0.167,0.065,0.322,0.18,0.432c0.109,0.11,0.264,0.183,0.431,0.183c0.171,0,0.334-0.073,0.452-0.188l0.008-0.008
		c0.118-0.118,0.191-0.273,0.216-0.448v-3.133c-0.188-0.049-0.374-0.118-0.554-0.195c-0.513-0.216-0.748-0.81-0.528-1.318
		c0.22-0.509,0.813-0.745,1.318-0.525c0.269,0.114,0.528,0.171,0.776,0.171s0.501-0.053,0.745-0.163
		c0.504-0.228,1.099,0,1.322,0.505c0.224,0.504,0,1.099-0.505,1.322c-0.191,0.085-0.378,0.155-0.569,0.208v3.125
		c0.021,0.179,0.102,0.342,0.224,0.459c0.118,0.114,0.276,0.188,0.447,0.188s0.326-0.073,0.436-0.183
		c0.11-0.11,0.18-0.265,0.18-0.432c0-0.553,0.451-1.005,1.005-1.005c0.553,0,1.005,0.452,1.005,1.005
		c0,0.725-0.297,1.383-0.77,1.855c-0.472,0.472-1.131,0.765-1.855,0.765c-0.635,0-1.212-0.228-1.676-0.603
		c-0.456,0.375-1.042,0.603-1.677,0.603c-0.724,0-1.383-0.293-1.855-0.765C363.995,137.127,363.702,136.469,363.702,135.744
		L363.702,135.744z"/><path fill="#404041" d="M350.3,126.431c-0.48-0.265-0.659-0.875-0.399-1.359c0.261-0.484,0.871-0.663,1.359-0.403l12.564,6.84
		c0.484,0.264,0.659,0.875,0.398,1.359c-0.26,0.484-0.87,0.663-1.358,0.398L350.3,126.431z M350.088,137.774
		c-0.545,0.09-1.058-0.276-1.147-0.822c-0.098-0.549,0.276-1.062,0.822-1.155l11.522-1.937l0,0c0.55-0.094,1.066,0.277,1.155,0.822
		c0.09,0.545-0.276,1.062-0.821,1.152L350.088,137.774z M374.383,135.834c-0.549-0.09-0.915-0.606-0.826-1.152
		c0.094-0.545,0.61-0.916,1.156-0.822l11.526,1.937c0.545,0.093,0.916,0.606,0.822,1.155c-0.09,0.545-0.606,0.912-1.151,0.822
		L374.383,135.834z M373.134,133.266c-0.484,0.265-1.095,0.085-1.359-0.398c-0.26-0.484-0.081-1.095,0.403-1.359l12.564-6.84
		c0.484-0.26,1.095-0.082,1.359,0.403c0.26,0.484,0.081,1.094-0.403,1.359L373.134,133.266z"/><path fill="#A6A8AB" d="M360.034,114.104c0.096-0.103,0.183-0.212,0.282-0.312l0.071-0.071c1.426-1.404,3.181-2.355,5.088-2.807
		l0.005-0.019c-0.635-4.836-2.039-10.17-4.285-14.501c-2.025-3.906-4.752-7.029-8.247-8.331c-0.554-0.205-1.127,0.106-1.306,0.649
		c-1.449,4.224-1.055,8.618,0.398,12.76c1.668,4.748,4.731,9.173,7.971,12.625L360.034,114.104z"/><path fill="none" stroke="#000" stroke-linecap="round" stroke-linejoin="round" stroke-miterlimit="10" stroke-width=".25" d="
		M374.281,98.939"/><path fill="#EC297B" d="M372.438 111.545c.729.328 1.421.732 2.056 1.204.472-.502.936-1.021 1.387-1.554l.045-.061c.513-.602 1.005-1.225 1.481-1.859-1.245-1.847-2.291-3.983-3.146-6.25-.31.995-.586 2.006-.83 3.021l-.004-.002v.002C372.987 107.887 372.657 109.75 372.438 111.545L372.438 111.545zM361.501 112.757c.631-.472 1.318-.875 2.047-1.202-.586-4.738-1.938-10.007-4.134-14.243-1.607-3.103-3.666-5.635-6.189-6.939-.907 3.444-.492 7.027.708 10.443C355.504 105.283 358.413 109.478 361.501 112.757L361.501 112.757z"/></g><g><path d="M278.823,95.539c0,0,2.75-0.962,5.177-0.962c2.556,0,4.819,0.856,4.819,0.856l0.73-4.907
		c0.082-0.545-0.3-1.055-0.844-1.134c-0.373-0.054-0.722,0.104-0.941,0.382l-3.74,4.414l-4.544-5.727
		c-0.341-0.432-0.974-0.503-1.404-0.16c-0.3,0.235-0.421,0.606-0.365,0.955L278.823,95.539z"/><path fill="#FA9100" d="M284.001,122.354c-3.022,0-5.659,1.39-8.256,2.759c-2.83,1.486-5.608,2.951-8.986,2.916l0,0h-0.081
		c-1.612,0-3.073,0.664-4.139,1.729c-1.063,1.07-1.733,2.545-1.754,4.163h0.011v0.077c0,1.648,0.67,3.144,1.743,4.224l0.052,0.056
		c1.075,1.045,2.545,1.694,4.168,1.694c3.296,0,6.016,1.035,8.772,2.089c2.628,1.004,5.306,2.023,8.47,2.023s5.842-1.019,8.47-2.023
		c2.757-1.054,5.477-2.089,8.772-2.089c1.642,0,3.133-0.675,4.219-1.75c1.074-1.08,1.744-2.576,1.744-4.224v-0.077v-0.076
		c-0.03-1.587-0.7-3.032-1.744-4.087c-1.064-1.065-2.525-1.729-4.147-1.729h-0.071h-0.102c-3.338,0.005-6.085-1.445-8.885-2.916
		C289.66,123.745,287.014,122.354,284.001,122.354L284.001,122.354z"/><path d="M280.089 126.386c1.112 0 2.013.901 2.013 2.013 0 1.111-.9 2.012-2.013 2.012-1.111 0-2.013-.9-2.013-2.012C278.076 127.287 278.978 126.386 280.089 126.386L280.089 126.386zM287.911 126.386c1.111 0 2.013.901 2.013 2.013 0 1.111-.901 2.012-2.013 2.012-1.112 0-2.013-.9-2.013-2.012C285.898 127.287 286.799 126.386 287.911 126.386L287.911 126.386z"/><path fill="#A6A8AB" d="M266.678,128.03h0.081c3.378,0.035,6.156-1.43,8.986-2.916c2.597-1.369,5.233-2.759,8.256-2.759
		c3.013,0,5.659,1.39,8.256,2.759c2.8,1.471,5.547,2.921,8.885,2.916h0.102h0.071c0.074,0,0.146,0.008,0.22,0.011V112.3
		c0-4.808-1.939-9.169-5.08-12.339l-0.056-0.063c-2.078-2.077-4.674-3.632-7.579-4.464c0,0-2.264-0.856-4.819-0.856
		c-2.427,0-5.177,0.962-5.177,0.962c-2.758,0.85-5.233,2.368-7.222,4.359c-3.181,3.175-5.144,7.56-5.144,12.402v15.741
		C266.531,128.038,266.604,128.03,266.678,128.03z"/></g><g><path fill="#F687C9" d="M200.193,144c-11.522,0-20.938-9.416-20.938-20.934c0-4.736,0-2.368,0-7.104
		c0-3.184,0.887-6.701,2.006-8.913c1.862-3.68,6.767-8.711,10.893-10.41c2.335-0.961,5.192-1.611,8.04-1.611l0,0h-0.387l0,0
		c2.849,0,5.706,0.65,8.04,1.611c4.127,1.699,9.031,6.73,10.893,10.41c1.119,2.212,2.006,5.729,2.006,8.913c0,4.736,0,2.368,0,7.104
		c0,11.519-9.416,20.934-20.938,20.934H200.193z"/><path fill="#EC297B" d="M208.776,114.289c-2.246-2.244-5.351-3.631-8.777-3.631c-3.426,0-6.53,1.388-8.772,3.631v0.004
		c-2.246,2.242-3.638,5.346-3.638,8.772c0,3.422,1.392,6.526,3.638,8.772c2.246,2.242,5.347,3.633,8.772,3.633
		c3.426,0,6.527-1.392,8.772-3.633c2.246-2.246,3.634-5.351,3.634-8.772c0-3.426-1.388-6.531-3.634-8.772L208.776,114.289
		L208.776,114.289z"/><path fill="#F687C9" d="M195.524,120.999c1.106,0,2.002,0.896,2.002,1.998c0,1.106-0.896,2.002-2.002,2.002
		c-1.103,0-2.002-0.896-2.002-2.002C193.522,121.894,194.421,120.999,195.524,120.999L195.524,120.999z M204.476,120.999
		c1.103,0,1.997,0.896,1.997,1.998c0,1.106-0.895,2.002-1.997,2.002c-1.107,0-2.002-0.896-2.002-2.002
		C202.474,121.894,203.368,120.999,204.476,120.999L204.476,120.999z"/><path fill="#E663A3" d="M181.21,107.178c-2.449-2.254-3.722-4.939-3.999-7.997c-0.277-3.115,0.447-6.634,1.981-10.471
		c0.199-0.493,0.704-0.769,1.205-0.7c2.697,0.373,5.484,1.642,7.682,3.426c1.734,1.409,3.198,3.364,3.923,5.278
		c-4.087,1.761-8.88,6.695-10.722,10.325c-0.001,0.003-0.004,0.007-0.006,0.01c-0.021,0.041-0.039,0.088-0.06,0.13L181.21,107.178z
		 M218.79,107.178c2.448-2.254,3.722-4.939,3.998-7.997c0.277-3.115-0.447-6.634-1.981-10.471c-0.199-0.493-0.704-0.769-1.204-0.7
		c-2.697,0.373-5.484,1.642-7.682,3.426c-1.734,1.409-3.199,3.364-3.924,5.278c4.088,1.761,8.881,6.695,10.723,10.325
		c0.001,0.003,0.004,0.007,0.006,0.01c0.02,0.041,0.039,0.088,0.059,0.13L218.79,107.178z"/><path fill="#EC297B" d="M179.445,98.978c-0.312-2.501,0.317-5.393,1.501-8.575c2.022,0.444,4.049,1.444,5.697,2.783
		c1.55,1.259,2.877,2.93,3.398,4.566c-2.909,1.822-5.876,4.815-7.715,7.523l-0.018,0.018
		C182.308,105.293,179.874,102.426,179.445,98.978z M220.539,98.978c0.311-2.501-0.318-5.393-1.502-8.575
		c-2.021,0.444-4.049,1.444-5.696,2.783c-1.55,1.259-2.877,2.93-3.398,4.566c2.909,1.822,5.876,4.815,7.716,7.523l0.018,0.018
		C217.676,105.293,220.109,102.426,220.539,98.978z"/></g><g><path fill="#A6A8AB" d="M122.881,94.378c2.413,1.227,4.456,3.081,5.909,5.343c1.518,2.366,2.401,5.18,2.401,8.197
		c0,5.685,1.872,10.324,3.394,14.108c1.111,2.759,2.047,5.095,2.047,7.194c0,1.774-0.72,3.386-1.888,4.549v0.008l-0.016,0.016
		c-0.79,0.781-1.787,1.367-2.897,1.66c0.057,0.13,0.11,0.252,0.155,0.391c0.228,0.635,0.354,1.327,0.354,2.043
		c0,1.685-0.684,3.214-1.791,4.321l0,0l0,0c-1.107,1.107-2.633,1.791-4.326,1.791c-1.493,0-2.869-0.537-3.931-1.432
		c-0.452-0.375-0.851-0.822-1.18-1.327c-0.326,0.504-0.724,0.952-1.18,1.327C118.869,143.463,117.498,144,116,144
		c-1.493,0-2.867-0.537-3.929-1.432c-0.454-0.375-0.853-0.822-1.182-1.327c-0.328,0.504-0.727,0.952-1.18,1.327
		c-1.062,0.895-2.436,1.432-3.931,1.432c-1.689,0-3.219-0.684-4.324-1.791l-0.059-0.065c-1.068-1.099-1.731-2.604-1.731-4.256
		c0-0.716,0.126-1.408,0.354-2.043c0.044-0.138,0.098-0.26,0.152-0.391c-1.117-0.293-2.118-0.887-2.91-1.676l-0.004-0.008
		l-0.014-0.008c-1.156-1.164-1.874-2.767-1.874-4.541c0-2.1,0.94-4.436,2.049-7.194c1.522-3.784,3.392-8.423,3.392-14.108
		c0-3.017,0.883-5.831,2.401-8.197c1.453-2.262,3.496-4.116,5.909-5.343c0.128-1.697,0.869-3.225,2.002-4.356
		C112.368,88.773,114.094,88,116,88c1.908,0,3.634,0.773,4.879,2.022C122.014,91.154,122.751,92.68,122.881,94.378L122.881,94.378z"/><path fill="#8F0000" d="M116 105.746c-2.752 0-4.991-2.238-4.991-4.989 0-.356.042-.685.104-.988-.563-.567-1.027-1.228-1.361-1.941-.428-.916-.646-1.9-.646-2.926 0-1.839.717-3.57 2.02-4.873 1.304-1.303 3.034-2.02 4.874-2.02 1.842 0 3.573.718 4.875 2.021 1.299 1.297 2.017 3.029 2.017 4.872 0 1.028-.217 2.013-.644 2.926-.333.714-.798 1.376-1.36 1.94.063.303.104.632.104.989C120.991 103.508 118.752 105.746 116 105.746zM110.333 122.922c-.948-2.523-1.487-5.16-1.76-6.491l-.082-.391h-.002c-.108-.517-.163-1.005-.163-1.46 0-1.323.429-2.442 1.275-3.327.8-.836 1.959-1.428 3.461-1.746h.002c.867-.183 1.848-.279 2.934-.279s2.063.096 2.93.276c1.506.32 2.669.912 3.467 1.746l.004.006c.842.883 1.273 2.004 1.273 3.323 0 .456-.053.944-.163 1.46h-.004l-.082.391c-.269 1.331-.81 3.968-1.758 6.491 1.273.244 2.417.871 3.3 1.758 1.16 1.155 1.876 2.759 1.876 4.533 0 1.758-.72 3.37-1.88 4.525h.004c-1.16 1.164-2.763 1.88-4.533 1.88-1.066 0-2.075-.261-2.958-.725-.541-.285-1.038-.635-1.477-1.058-.436.423-.934.773-1.475 1.058-.885.464-1.892.725-2.956.725-1.771 0-3.375-.716-4.533-1.88l-.055-.057c-1.129-1.156-1.823-2.734-1.823-4.468 0-1.774.718-3.377 1.878-4.533C107.917 123.792 109.058 123.166 110.333 122.922L110.333 122.922z"/><path fill="#FAAF40" d="M110.535,116.033c0.529,2.592,2.244,10.958,5.465,10.958c3.223,0,4.936-8.366,5.469-10.958l0.082-0.403
		v-0.008c0.077-0.358,0.114-0.708,0.114-1.042c0-0.79-0.24-1.445-0.712-1.939c-0.521-0.543-1.334-0.942-2.433-1.174
		c-0.716-0.148-1.555-0.23-2.519-0.23c-0.962,0-1.805,0.08-2.521,0.23l0,0c-1.099,0.234-1.913,0.629-2.429,1.17l-0.002,0.004
		c-0.472,0.494-0.712,1.149-0.712,1.939c0,0.325,0.039,0.675,0.116,1.042v0.008L110.535,116.033L110.535,116.033z"/></g><g><path fill="#8F0000" d="M32,105.744c-2.752,0-4.992-2.238-4.992-4.99c0-0.357,0.042-0.686,0.105-0.989
		c-0.56-0.563-1.024-1.224-1.359-1.94c-0.429-0.917-0.646-1.901-0.646-2.927c0-1.84,0.717-3.571,2.021-4.874
		c1.299-1.302,3.029-2.021,4.871-2.021c1.843,0,3.574,0.718,4.875,2.021c1.303,1.301,2.021,3.032,2.021,4.873
		c0,1.022-0.218,2.007-0.648,2.926c-0.335,0.718-0.8,1.38-1.36,1.943c0.063,0.303,0.104,0.63,0.104,0.986
		C36.992,103.506,34.752,105.744,32,105.744z"/><path d="M52.536,128.897c-0.305-0.691-0.753-1.318-1.302-1.832l-0.057-0.057c-2.36-2.141-3.659-4.412-4.358-7.391
		c-0.729-3.085-0.847-6.968-0.847-12.218c0-2.678-0.761-5.185-2.076-7.313c-1.229-2-2.958-3.671-5.002-4.833
		c-0.005-0.004-0.011-0.008-0.017-0.012c-0.043,0.898-0.248,1.767-0.629,2.582c-0.335,0.718-0.8,1.38-1.36,1.943
		c0.063,0.303,0.104,0.63,0.104,0.986c0,2.751-2.239,4.99-4.992,4.99s-4.992-2.238-4.992-4.99c0-0.357,0.042-0.686,0.105-0.989
		c-0.56-0.563-1.024-1.224-1.359-1.94c-0.38-0.813-0.584-1.681-0.627-2.582c-0.006,0.004-0.013,0.007-0.019,0.011
		c-2.045,1.162-3.772,2.833-5.004,4.833c-1.314,2.129-2.071,4.636-2.071,7.313c0,5.25-0.12,9.133-0.849,12.218
		c-0.702,2.979-1.998,5.25-4.356,7.391l0.002,0.008c-0.578,0.521-1.046,1.165-1.361,1.88c-0.308,0.692-0.48,1.457-0.48,2.263
		c0,1.546,0.631,2.954,1.644,3.972l0.002-0.008l0.002,0.008c0.977,0.977,2.316,1.587,3.795,1.636
		c-0.098,0.431-0.151,0.871-0.151,1.327c0,1.619,0.653,3.084,1.712,4.159l0.02,0.016l0.004,0.008
		c1.07,1.066,2.547,1.725,4.173,1.725c1.451,0,2.786-0.529,3.815-1.4c0.417-0.35,0.783-0.765,1.091-1.221
		c0.305,0.456,0.671,0.871,1.088,1.221c1.03,0.871,2.365,1.4,3.815,1.4c1.453,0,2.788-0.529,3.817-1.4
		c0.415-0.35,0.781-0.765,1.086-1.221c0.31,0.456,0.676,0.871,1.091,1.221c1.029,0.871,2.364,1.4,3.817,1.4
		c1.616,0,3.085-0.651,4.155-1.709l0.017-0.016l0.008-0.008c1.067-1.074,1.73-2.548,1.73-4.175c0-0.456-0.053-0.896-0.15-1.327
		c1.448-0.041,2.759-0.635,3.732-1.579l0.065-0.057c1.013-1.018,1.644-2.426,1.644-3.972
		C53.012,130.354,52.841,129.589,52.536,128.897z"/><path fill="#8F0000" d="M27.796,117.355c-0.283-1.498-0.602-3.064-0.602-4.597c0-1.446,0.333-2.646,0.991-3.539
		c1.711-2.334,5.924-2.33,7.633,0c0.655,0.893,0.993,2.09,0.993,3.539c0,1.532-0.321,3.099-0.606,4.597
		c0.496,3.492,1.221,6.764,2.182,10.15c0.545,1.921,0.96,3.395,0.968,4.477v0.082c-0.037,0.863-0.415,1.636-0.993,2.19l0,0h-0.004
		c-0.582,0.553-1.367,0.903-2.23,0.903l-0.073-0.008c-0.276,0.667-0.691,1.212-1.196,1.627c-0.806,0.668-1.828,0.994-2.841,0.985
		h-0.032c-1.011,0.008-2.035-0.317-2.839-0.985c-0.504-0.415-0.924-0.96-1.196-1.627l-0.073,0.008c-0.857,0-1.643-0.342-2.222-0.896
		l-0.015-0.008c-0.578-0.554-0.954-1.327-0.993-2.19h0.002l-0.002-0.041c0-1.099,0.419-2.572,0.971-4.518
		C26.575,124.119,27.3,120.847,27.796,117.355L27.796,117.355z"/><polygon points="39.354 131.982 39.354 132.023 39.354 131.982"/><path fill="#FAAF40" d="M32.358,124.657c0.472-1.522,0.993-3.508,1.441-5.551c0.444-2.035,1.001-4.249,1.001-6.347
		c0-1.017-0.204-1.815-0.603-2.356c-0.908-1.239-3.486-1.237-4.396,0c-0.397,0.541-0.6,1.341-0.6,2.356
		c0,2.098,0.555,4.312,1.001,6.347c0.448,2.043,0.969,4.029,1.439,5.551C31.764,125.039,32.24,125.047,32.358,124.657
		L32.358,124.657z"/></g><g><path fill="#4A3222" d="M367.997,59.993c-2.051,0.028-4.045,0.008-5.624-0.68c-1.758-0.765-2.909-2.238-2.909-5.074
		c0-6.34-2.039-11.061-3.919-15.41c-1.681-3.898-3.243-7.516-3.243-11.819c0-2.315,0.452-4.527,1.278-6.547l-0.004-0.006
		c0,0,1.115-2.728,2.886-4.724c1.138-1.283,4.031-3.475,4.382-3.683l0.098-0.946c0.021-1.923,0.806-3.665,2.071-4.926
		c1.277-1.276,3.048-2.067,4.988-2.067s3.711,0.792,4.988,2.067c1.266,1.261,2.051,3.003,2.071,4.926l0.098,0.946
		c0.351,0.208,3.244,2.4,4.382,3.683c1.771,1.996,2.886,4.724,2.886,4.724l-0.004,0.006c0.826,2.021,1.278,4.232,1.278,6.547
		c0,4.303-1.563,7.921-3.243,11.819c-1.88,4.35-3.919,9.07-3.919,15.41c0,2.836-1.151,4.309-2.909,5.074
		c-1.579,0.688-3.573,0.708-5.624,0.68H367.997z"/><path d="M368.001 39.095l-4.497-12.448-4.696 5.051 2.131-20.57c.091-1.995.787-3.658 2.071-4.944 1.332-1.333 3.104-2.066 4.991-2.066s3.659.733 4.991 2.065c1.284 1.287 1.98 2.95 2.071 4.945l2.131 20.57-4.696-5.051L368.001 39.095zM364.425 50.894c1.147 0 2.075.928 2.075 2.075 0 1.144-.928 2.071-2.075 2.071-1.144 0-2.071-.928-2.071-2.071C362.354 51.821 363.281 50.894 364.425 50.894L364.425 50.894zM371.57 50.894c-1.144 0-2.071.928-2.071 2.075 0 1.144.928 2.071 2.071 2.071 1.147 0 2.075-.928 2.075-2.071C373.646 51.821 372.718 50.894 371.57 50.894L371.57 50.894z"/><path fill="#382924" d="M389.133 4.98c-.032-.474-.398-.873-.883-.93-2.52-.301-5.294.761-7.613 2.647-1.893 1.538-3.508 3.64-4.456 6.008l-.003.09c1.046.805 2.599 2.074 3.362 2.936 1.77 1.995 2.884 4.72 2.886 4.724l.001 0c3.292-2.531 5.046-5.306 5.941-8.004C389.255 9.764 389.283 7.178 389.133 4.98zM346.857 4.98c.032-.474.398-.873.883-.93 2.52-.301 5.294.761 7.613 2.647 1.893 1.538 3.508 3.64 4.456 6.008l.003.09c-1.046.805-2.599 2.074-3.362 2.936-1.77 1.995-2.884 4.72-2.886 4.724l-.001 0c-3.292-2.531-5.046-5.306-5.941-8.004C346.735 9.764 346.707 7.178 346.857 4.98z"/><path d="M354.464 18.614l.021-.009c.492-.89 1.164-1.958 1.977-2.874.417-.47 1.07-1.063 1.747-1.634-.782-2.228-2.35-4.413-4.111-5.845-1.652-1.341-3.532-2.181-5.273-2.242-.065 1.785.049 3.785.716 5.813C350.289 14.096 351.754 16.441 354.464 18.614zM387.177 6.01c-1.742.061-3.626.901-5.278 2.242-1.752 1.424-3.315 3.635-4.098 5.852.674.57 1.324 1.16 1.739 1.628.814.918 1.487 1.988 1.979 2.879l.017.003c2.711-2.173 4.171-4.519 4.924-6.792C387.128 9.794 387.241 7.794 387.177 6.01z"/></g><g><path fill="#FFA74A" d="M298.788,38.68c-0.602-0.484-1.101-1.077-1.473-1.738c-1.524,1.457-4.135,3.439-7.787,3.439
		c-1.813,0-3.671-0.5-5.53-1.487c-1.863,0.988-3.719,1.487-5.53,1.487c-3.636,0-6.239-1.964-7.784-3.438
		c-0.358,0.639-0.832,1.209-1.399,1.675c-0.482,0.383-1.004,0.668-1.543,0.888c0.034-0.001,0.071,0.002,0.099-0.009
		c1.947,1.13,4.369,8.656,4.203,12.719c0,1.473,0.697,3.564,1.754,5.143c2.377,3.54,6.441,2.498,10.156,2.498h0.045h0.004h0.045
		c3.715,0,7.779,1.042,10.156-2.498c1.057-1.579,1.754-3.67,1.754-5.143c-0.166-4.063,2.256-11.589,4.203-12.719
		c0.031,0.014,0.067,0.016,0.103,0.019C299.737,39.305,299.235,39.034,298.788,38.68z"/><path fill="#FF7A3B" d="M271.506,47.577l-0.023,0.065c-0.797,1.294-1.881,2.368-3.068,3.1c-1.57,0.969-3.344,1.367-4.963,0.952
		c-0.281-0.073-0.563-0.171-0.83-0.293c-0.318-0.146-0.551-0.447-0.586-0.822c-0.285-3.101,0.443-5.501,1.83-7.454
		c1.025-1.44,2.4-2.612,3.975-3.629C269.164,40.266,270.707,43.993,271.506,47.577z M300.16,39.497
		c-1.324,0.769-2.865,4.493-3.666,8.076l0.023,0.07c0.797,1.294,1.875,2.368,3.068,3.1c1.566,0.969,3.34,1.367,4.959,0.952
		c0.281-0.073,0.563-0.171,0.83-0.293c0.318-0.146,0.551-0.447,0.582-0.822c0.293-3.101-0.439-5.501-1.822-7.454
		C303.105,41.686,301.73,40.514,300.16,39.497z"/><path d="M282.996,56.625v-1.292c-0.275-0.049-0.553-0.122-0.813-0.22h-0.008l0,0c-0.586-0.211-1.131-0.529-1.604-0.919
		c-0.42-0.358-0.477-0.993-0.123-1.408c0.355-0.423,0.986-0.48,1.408-0.13c0.293,0.244,0.635,0.448,1.002,0.578l0,0
		c0.35,0.13,0.732,0.195,1.139,0.195c0.395,0,0.762-0.065,1.104-0.179l0.039-0.017c0.371-0.13,0.709-0.333,1.006-0.578l0,0
		c0.424-0.35,1.053-0.293,1.404,0.13c0.354,0.423,0.293,1.05-0.131,1.408c-0.473,0.391-1.014,0.708-1.6,0.919l-0.053,0.016
		c-0.248,0.09-0.504,0.155-0.77,0.204v1.292c0,0-0.014,1.254-1.001,1.254C283.016,57.879,282.996,56.625,282.996,56.625z"/><path fill="#E6E7E8" d="M307.853,31.64c-0.237-0.514-1.412-2.463-2.615-3.476c-0.001,0-0.001,0.001-0.002,0.001
		c-0.296,0.584-0.646,1.173-1.056,1.762l-0.033,0.053c-0.17,0.249-0.35,0.493-0.545,0.736c0,0,0,0,0,0s-0.002,0.003-0.002,0.003
		c-0.124-1.37-0.481-2.639-1.057-3.74c-0.03-0.058-0.067-0.106-0.1-0.163c-0.172-0.312-0.353-0.616-0.561-0.898
		c-0.67-0.907-1.5-1.621-2.4-2.065c-0.724-0.354-1.448-0.531-2.159-0.531c-0.213,0-0.421,0.016-0.621,0.048
		c-0.614,0.096-1.185,0.342-1.667,0.715c-0.095-0.106-0.192-0.211-0.294-0.313c-1.298-1.297-3.024-2.012-4.86-2.012
		c-2.271,0-3.819,1.151-3.788,1.13l-0.001,0c0.488-1.932,1.232-3.552,2.152-4.874c1.533-2.213,3.568-3.621,5.744-4.345
		c1.213-0.403,2.467-0.592,3.703-0.59c0,0,1.082,0.003,2.215,0.212c-0.013-0.002-0.024-0.006-0.037-0.008
		c-0.098-0.376-0.229-0.736-0.387-1.083c-0.619-1.349-1.664-2.417-2.918-3.09c-1.248-0.669-2.705-0.957-4.143-0.753
		c-0.293,0.041-0.576,0.102-0.865,0.185c-0.656-1.231-1.604-2.281-2.746-3.062c-1.376-0.933-3.034-1.481-4.813-1.483
		c-1.779,0.001-3.438,0.55-4.813,1.483c-1.143,0.781-2.09,1.831-2.746,3.062c-0.289-0.083-0.572-0.145-0.865-0.185
		c-1.438-0.204-2.895,0.083-4.143,0.753c-1.254,0.673-2.299,1.741-2.918,3.09c-0.158,0.346-0.289,0.706-0.387,1.083
		c-0.013,0.002-0.024,0.006-0.037,0.008c1.133-0.209,2.215-0.212,2.215-0.212c1.236-0.002,2.49,0.188,3.703,0.59
		c2.176,0.724,4.211,2.132,5.744,4.345c0.92,1.322,1.664,2.942,2.152,4.874l-0.001,0c-1.109-0.734-2.411-1.13-3.778-1.13
		c-1.836,0-3.563,0.715-4.86,2.012c-0.102,0.102-0.199,0.206-0.294,0.313c-0.482-0.374-1.053-0.619-1.667-0.715
		c-0.2-0.032-0.408-0.048-0.621-0.048c-0.711,0-1.436,0.177-2.159,0.531c-0.9,0.444-1.73,1.158-2.4,2.065
		c-0.208,0.282-0.389,0.586-0.561,0.898c-0.032,0.057-0.069,0.105-0.1,0.163c-0.575,1.101-0.933,2.37-1.057,3.74
		c0,0-0.002-0.003-0.002-0.003s0,0,0,0c-0.195-0.244-0.375-0.488-0.545-0.736l-0.033-0.053c-0.41-0.589-0.76-1.178-1.056-1.762
		c-0.001,0-0.001-0.001-0.002-0.001c-1.203,1.013-2.378,2.962-2.615,3.476c-0.343,0.765-0.517,1.58-0.517,2.421
		c0,1.453,0.521,2.828,1.477,3.911l0.065,0.13l0.286,0.236c1.1,1.046,2.542,1.621,4.07,1.621c1.329,0,2.634-0.454,3.751-1.341
		c0.567-0.465,1.041-1.036,1.399-1.675c1.545,1.474,4.148,3.438,7.784,3.438c1.812,0,3.667-0.499,5.53-1.487
		c0.001,0,0.003,0.001,0.004,0.002c0.001-0.001,0.003-0.001,0.004-0.002c1.863,0.988,3.719,1.487,5.53,1.487
		c3.636,0,6.239-1.964,7.784-3.438c0.358,0.639,0.832,1.209,1.399,1.675c1.117,0.887,2.422,1.341,3.751,1.341
		c1.528,0,2.971-0.575,4.07-1.621l0.286-0.236l0.065-0.13c0.955-1.083,1.477-2.458,1.477-3.911
		C308.369,33.219,308.195,32.405,307.853,31.64z"/><path fill="#4A3222" d="M261.347,29.746c-1.331-2.344-1.891-4.678-1.819-6.818c0.086-2.596,1.104-4.907,2.779-6.628
		c0.443-0.454,0.928-0.861,1.438-1.215c1.086-0.754,2.348-1.318,3.693-1.65c1.328-0.354,2.865-0.354,2.865-0.354
		c1.236-0.002,2.49,0.188,3.703,0.59c2.176,0.724,4.211,2.132,5.744,4.345c0.92,1.322,1.664,2.942,2.152,4.874
		c-0.229-0.152-0.468-0.286-0.712-0.408c-0.125-0.064-0.252-0.121-0.38-0.176c-0.111-0.047-0.226-0.089-0.34-0.13
		c-0.229-0.083-0.462-0.154-0.7-0.211c-0.147-0.036-0.295-0.07-0.445-0.096c-0.116-0.02-0.233-0.038-0.353-0.051
		c-0.28-0.034-0.563-0.058-0.85-0.058c-1.836,0-3.563,0.715-4.86,2.012c-0.102,0.102-0.199,0.206-0.294,0.313
		c-0.482-0.374-1.053-0.619-1.667-0.715c-0.2-0.032-0.408-0.048-0.621-0.048c-0.711,0-1.436,0.177-2.159,0.531
		c-0.9,0.444-1.73,1.158-2.4,2.065c-0.245,0.332-0.465,0.687-0.659,1.06c-0.001,0-0.001,0.001-0.001,0.001
		c-0.17,0.326-0.315,0.671-0.446,1.024c-0.042,0.112-0.078,0.228-0.116,0.343c-0.088,0.267-0.165,0.54-0.231,0.819
		c-0.027,0.117-0.058,0.233-0.081,0.353c-0.079,0.391-0.145,0.79-0.182,1.201c0,0-0.002-0.003-0.002-0.003s0,0,0,0
		c-0.195-0.244-0.375-0.488-0.545-0.736l-0.033-0.053c-0.41-0.589-0.76-1.178-1.056-1.762c-0.001,0-0.001-0.001-0.002-0.001
		C262.265,28.586,261.772,29.17,261.347,29.746z M306.637,29.746c1.331-2.344,1.891-4.678,1.819-6.818
		c-0.086-2.596-1.104-4.907-2.779-6.628c-0.443-0.454-0.928-0.861-1.438-1.215c-1.086-0.754-2.348-1.318-3.693-1.65
		c-1.328-0.354-2.865-0.354-2.865-0.354c-1.236-0.002-2.49,0.188-3.703,0.59c-2.176,0.724-4.211,2.132-5.744,4.345
		c-0.92,1.322-1.664,2.942-2.152,4.874c0.229-0.152,0.468-0.286,0.712-0.408c0.125-0.064,0.252-0.121,0.38-0.176
		c0.111-0.047,0.226-0.089,0.34-0.13c0.229-0.083,0.462-0.154,0.7-0.211c0.147-0.036,0.295-0.07,0.445-0.096
		c0.116-0.02,0.233-0.038,0.353-0.051c0.28-0.034,0.563-0.058,0.85-0.058c1.836,0,3.563,0.715,4.86,2.012
		c0.102,0.102,0.199,0.206,0.294,0.313c0.482-0.374,1.053-0.619,1.667-0.715c0.2-0.032,0.408-0.048,0.621-0.048
		c0.711,0,1.436,0.177,2.159,0.531c0.9,0.444,1.73,1.158,2.4,2.065c0.245,0.332,0.465,0.687,0.659,1.06
		c0.001,0,0.001,0.001,0.001,0.001c0.17,0.326,0.315,0.671,0.446,1.024c0.042,0.112,0.078,0.228,0.116,0.343
		c0.088,0.267,0.165,0.54,0.231,0.819c0.027,0.117,0.058,0.233,0.081,0.353c0.079,0.391,0.145,0.79,0.182,1.201
		c0,0,0.002-0.003,0.002-0.003s0,0,0,0c0.195-0.244,0.375-0.488,0.545-0.736l0.033-0.053c0.41-0.589,0.76-1.178,1.056-1.762
		c0.001,0,0.001-0.001,0.002-0.001C305.719,28.586,306.211,29.17,306.637,29.746z"/><path d="M279.51 21.897c-.379-1.04-.854-1.949-1.404-2.738-.602-.869-1.293-1.589-2.051-2.167-1.285.444-2.436 1.442-3.221 2.71-.693 1.125-1.1 2.456-1.059 3.78.432.125.83.324 1.188.601.098-.108.195-.21.293-.31 1.246-1.245 2.967-2.016 4.867-2.016C278.594 21.756 279.063 21.805 279.51 21.897L279.51 21.897zM273.969 15.786c-.195-.082-.395-.155-.594-.22-1.371-.458-2.82-.582-4.213-.419-.918.484-1.635 1.178-2.156 1.981-.609.948-.951 2.055-1.033 3.147-.08 1.086.098 2.157.514 3.042.227.488.537.919.91 1.263.363-.293.74-.535 1.131-.726.408-.204.83-.348 1.254-.436-.027-1.688.48-3.359 1.355-4.767C271.861 17.482 272.842 16.481 273.969 15.786L273.969 15.786zM264.955 16.677l-.072.053c-.424.293-.807.616-1.145.962-1.338 1.373-2.143 3.22-2.217 5.299-.068 2.134.627 4.527 2.303 6.936l.033.053c.17.249.35.493.545.736.172-1.914.789-3.487 1.627-4.673-.561-.523-1.012-1.162-1.35-1.872-.57-1.2-.807-2.618-.701-4.039C264.064 18.955 264.391 17.761 264.955 16.677L264.955 16.677zM288.474 21.897c.447-.092.916-.141 1.387-.141 1.9 0 3.621.771 4.867 2.016.098.1.195.202.293.31.357-.277.756-.476 1.188-.601.041-1.324-.365-2.655-1.059-3.78-.785-1.268-1.936-2.266-3.221-2.71-.758.578-1.449 1.298-2.051 2.167C289.327 19.948 288.853 20.857 288.474 21.897L288.474 21.897zM294.015 15.786c1.127.696 2.107 1.696 2.832 2.866.875 1.408 1.383 3.078 1.355 4.767.424.087.846.232 1.254.436.391.191.768.433 1.131.726.373-.344.684-.775.91-1.263.416-.885.594-1.955.514-3.042-.082-1.092-.424-2.199-1.033-3.147-.521-.803-1.238-1.497-2.156-1.981-1.393-.163-2.842-.039-4.213.419C294.409 15.631 294.21 15.704 294.015 15.786L294.015 15.786zM303.028 16.677c.564 1.084.891 2.278.977 3.456.105 1.42-.131 2.838-.701 4.039-.338.71-.789 1.349-1.35 1.872.838 1.186 1.455 2.759 1.627 4.673.195-.244.375-.488.545-.736l.033-.053c1.676-2.409 2.371-4.801 2.303-6.936-.074-2.079-.879-3.926-2.217-5.299-.338-.346-.721-.669-1.145-.962L303.028 16.677 303.028 16.677zM302.504 44.29c-.903-1.274-2.178-2.324-3.646-3.242-.538.921-1.061 2.138-1.512 3.479.119.403.299.939.426 1.219.635 1.408 1.685 2.571 2.864 3.295 1.103.684 2.315.977 3.382.725C304.11 47.504 303.529 45.73 302.504 44.29zM269.144 41.048c-1.47.918-2.747 1.967-3.65 3.241-1.025 1.44-1.607 3.214-1.514 5.477 1.066.252 2.279-.041 3.386-.725 1.18-.724 2.222-1.888 2.86-3.295.106-.237.29-.774.43-1.217C270.203 43.187 269.681 41.97 269.144 41.048z"/></g><g><path fill="#EBB384" d="M227.998,37.026c0,3.714-1.499,7.204-4.219,9.828c-2.721,2.627-6.336,4.074-10.186,4.074
		c-1.377,0-2.752-0.192-4.092-0.573c-0.029-0.006-0.059-0.013-0.088-0.021c-0.972-0.285-1.902-0.669-2.782-1.142
		c0.628-0.136,1.202-0.445,1.686-0.923c0.001,0,0.001,0,0.001,0c0.007-0.007,0.015-0.014,0.021-0.021
		c0.657-0.663,1.124-1.629,1.313-2.721l3.214-22.359c0.012-0.06,0.017-0.121,0.017-0.182c-0.018-2.334-0.663-4.565-1.832-6.518
		c0.344,0.337,0.542,0.563,0.573,0.603l15.934,18.773c0.262,0.31,0.414,0.693,0.434,1.089
		C227.996,36.963,227.998,36.994,227.998,37.026z M191.716,48.303c-0.016-0.014-0.03-0.028-0.045-0.042
		c-0.672-0.681-1.139-1.647-1.329-2.737l-3.214-22.357c-0.01-0.06-0.016-0.12-0.015-0.181c0.014-2.332,0.659-4.561,1.829-6.515
		c-0.341,0.335-0.537,0.56-0.569,0.599l-15.934,18.773c-0.261,0.31-0.413,0.693-0.434,1.089c-0.003,0.031-0.005,0.062-0.005,0.094
		c0,3.714,1.499,7.204,4.219,9.828c2.72,2.627,6.336,4.074,10.185,4.074c1.377,0,2.753-0.192,4.093-0.573
		c0.029-0.006,0.058-0.013,0.087-0.021c0.972-0.285,1.903-0.67,2.783-1.143C192.75,49.058,192.188,48.762,191.716,48.303z"/><path d="M205.906,49.272h-11.812c-0.905,0-1.726-0.335-2.378-0.969c-0.016-0.014-0.03-0.028-0.045-0.042
		c-0.672-0.681-1.139-1.647-1.329-2.737l-3.214-22.357c-0.01-0.06-0.016-0.12-0.015-0.181c0.021-3.409,1.361-6.615,3.772-9.029
		c2.437-2.434,5.672-3.774,9.112-3.774c3.44,0,6.678,1.34,9.114,3.773c2.408,2.412,3.747,5.618,3.772,9.029
		c0,0.061-0.005,0.122-0.017,0.182l-3.214,22.359c-0.189,1.091-0.656,2.058-1.313,2.721c-0.007,0.007-0.015,0.014-0.021,0.021
		c0,0,0,0-0.001,0C207.653,48.925,206.82,49.272,205.906,49.272z"/><path d="M188.91,16.522l-3.178-7.38c-0.42-0.977,0.033-2.116,1.01-2.54c0.792-0.338,1.72-0.104,2.257,0.542l4.57,4.766
		c-0.966,0.559-1.873,1.236-2.684,2.046C190.108,14.733,189.456,15.6,188.91,16.522z M214.287,7.666
		c-0.191-0.482-0.561-0.861-1.036-1.064c-0.774-0.335-1.738-0.082-2.213,0.493l-4.613,4.814c0.968,0.559,1.875,1.236,2.687,2.047
		c0.782,0.784,1.439,1.658,1.988,2.589l3.166-7.399C214.471,8.671,214.479,8.146,214.287,7.666z"/><path fill="#EBB384" d="M205.906,49.272h-11.812c-0.905,0-1.726-0.335-2.378-0.969c-0.016-0.014-0.03-0.028-0.045-0.042
		c-0.672-0.681-1.139-1.647-1.329-2.737l-3.214-22.357c-0.01-0.06-0.016-0.12-0.015-0.181c0.021-3.409,1.361-6.615,3.772-9.029
		c2.437-2.434,5.672-3.774,9.112-3.774c3.44,0,6.678,1.34,9.114,3.773c2.408,2.412,3.747,5.618,3.772,9.029
		c0,0.061-0.005,0.122-0.017,0.182l-3.214,22.359c-0.189,1.091-0.656,2.058-1.313,2.721c-0.007,0.007-0.015,0.014-0.021,0.021
		c0,0,0,0-0.001,0C207.653,48.925,206.82,49.272,205.906,49.272z"/><path fill="#A05126" d="M191.051,47.432c-0.538,0.257-1.095,0.479-1.678,0.657c-1.082,0.33-2.246,0.509-3.456,0.509
		c-3.288,0-6.268-1.339-8.42-3.491c-2.077-2.075-3.393-4.927-3.485-8.072l13.304-16.195c-0.122,0.704-0.199,1.419-0.204,2.146
		c0,0.061,0.005,0.122,0.015,0.181l3.214,22.357C190.466,46.229,190.715,46.874,191.051,47.432z M212.669,20.777
		c0.13,0.723,0.209,1.458,0.215,2.207c0,0.061-0.005,0.122-0.017,0.182l-3.214,22.359c-0.123,0.708-0.372,1.353-0.705,1.907
		c0.536,0.257,1.096,0.479,1.67,0.657c1.091,0.33,2.255,0.509,3.459,0.509c3.287,0,6.266-1.339,8.422-3.491
		c2.075-2.075,3.394-4.927,3.483-8.072L212.669,20.777z"/><path d="M205.906,49.272h-11.812c-0.282,0-0.551-0.043-0.814-0.107l1.433,5.327c0.269,1.006,1.342,1.639,2.368,1.368
		c0.284-0.076,0.541-0.213,0.757-0.398l0.335,0.86c0.287,0.738,1.012,1.234,1.805,1.234c0.238,0,0.472-0.044,0.694-0.13
		c0.506-0.197,0.909-0.6,1.104-1.103l0.335-0.86c0.545,0.465,1.371,0.603,2.056,0.293c0.515-0.233,0.902-0.686,1.069-1.261
		l1.431-5.315C206.422,49.235,206.168,49.272,205.906,49.272z"/><path fill="#A05126" d="M202.362,41.531c0.727,0,1.319,0.593,1.319,1.319c0,0.731-0.593,1.325-1.319,1.325
		c-0.731,0-1.32-0.594-1.32-1.325C201.042,42.125,201.631,41.531,202.362,41.531L202.362,41.531z M197.636,41.531
		c0.729,0,1.318,0.593,1.318,1.319c0,0.731-0.589,1.325-1.318,1.325c-0.731,0-1.322-0.594-1.322-1.325
		C196.314,42.125,196.905,41.531,197.636,41.531L197.636,41.531z"/></g><g><path fill="#421400" d="M143.975,36.234c-0.386-2.091-1.691-4.523-3.782-6.402c-1.517-1.367-3.462-2.455-5.764-2.922
		c0.003-0.001,0-0.009,0.002-0.011c-1.622,0.589-3.37,0.893-5.224,0.893c-4.237,0-8.697-1.539-13.246-4.561
		c-4.549,3.022-9.009,4.561-13.246,4.561c-1.845,0-3.583-0.302-5.199-0.886c0.003,0.003-0.001,0.012,0.003,0.014
		c-2.283,0.472-4.207,1.556-5.713,2.913c-2.092,1.879-3.398,4.312-3.781,6.402c-0.482,2.644,6.104,0.326,6.688,0.078
		c1.01-0.431,1.973-0.972,2.814-1.607v15.929c0,3.315,2.73,6.049,6.051,6.049h24.77c3.314,0,6.049-2.734,6.049-6.049V34.648
		c0.857,0.659,1.846,1.221,2.888,1.664C137.585,36.442,144.463,38.931,143.975,36.234z"/><path fill="#9D836A" d="M99.537,50.744c0.063,2.172,1.862,3.929,4.041,3.929h24.77c2.176,0,3.979-1.757,4.039-3.929
		c-0.094-4.446-1.957-8.465-4.91-11.369c-6.341-6.244-16.691-6.244-23.035,0C101.491,42.279,99.628,46.298,99.537,50.744
		L99.537,50.744z"/><path fill="#897969" d="M134.396,31.915c0.883,1.045,2.208,1.928,3.672,2.55c1.172,0.5,2.425,0.826,3.601,0.928
		c-0.509-1.383-1.469-2.852-2.819-4.068c-1.188-1.072-2.688-1.94-4.453-2.367V31.915L134.396,31.915z M97.527,28.976
		c-1.732,0.433-3.207,1.291-4.381,2.349c-1.353,1.216-2.309,2.685-2.818,4.068c1.175-0.102,2.428-0.427,3.6-0.928
		c1.424-0.602,2.717-1.456,3.6-2.463V28.976L97.527,28.976z"/><path d="M120.953 42.336c.996 0 1.805.81 1.805 1.806s-.809 1.802-1.805 1.802c-.997 0-1.803-.805-1.803-1.802S119.956 42.336 120.953 42.336L120.953 42.336zM111.044 42.336c-.995 0-1.804.81-1.804 1.806s.809 1.802 1.804 1.802c.997 0 1.806-.805 1.806-1.802S112.041 42.336 111.044 42.336L111.044 42.336zM115.961 23.23c4.549 3.022 9.009 4.561 13.247 4.561 2.53 0 4.868-.554 6.949-1.647 4.083-2.148 7.542-6.971 6.255-12.034-.332-1.307-1-2.479-1.917-3.49-1.219-1.343-3.554-2.593-6.468-3.287-.537-.128-1.065.26-1.165.804-.061.331.051.655.269.878.669.689 3.712 4.294 2.415 5.311-.076.06-.332.186-.897.186-.744 0-2.122-.202-4.465-1.163-2.431-.998-5.455-2.239-8.446-2.239-2.223 0-4.161.677-5.774 2.016h.001c-1.614-1.339-3.552-2.016-5.774-2.016-2.992 0-6.016 1.241-8.446 2.239-2.343.961-3.721 1.163-4.465 1.163-.565 0-.822-.126-.897-.186-1.297-1.017 1.746-4.621 2.415-5.311.218-.224.329-.547.269-.878-.1-.543-.628-.932-1.165-.804-2.915.693-5.249 1.944-6.468 3.287-.917 1.011-1.585 2.183-1.917 3.49-1.287 5.063 2.172 9.886 6.255 12.034 2.081 1.093 4.418 1.647 6.949 1.647C106.953 27.792 111.413 26.253 115.961 23.23"/></g><g><path fill="#BBBDBF" d="M56.067,23.653c-1.522-0.804-3.268-1.212-4.997-1.263l-0.019-0.109c-0.001,0-0.001,0-0.002,0
		c-0.546-3.325-1.943-6.363-3.958-8.886c-0.45-0.563-0.927-1.102-1.437-1.611l-0.004,0.004v-0.004
		C42.156,8.293,37.33,6.131,32,6.131c-5.297,0-10.103,2.14-13.59,5.599l-0.065,0.055c-0.513,0.517-1.001,1.062-1.457,1.634
		c-0.001,0-0.003-0.001-0.005-0.001c0,0.004-0.001,0.007-0.001,0.011c-2.014,2.532-3.405,5.581-3.942,8.916l0,0l-0.007,0.046
		c-1.733,0.051-3.483,0.458-5.004,1.265c-1.627,0.861-2.999,2.173-3.837,3.983c-0.232,0.502-0.012,1.101,0.492,1.331
		c0.143,0.065,0.293,0.096,0.439,0.092l7.67,0.156v22.354c0,1.733,0.708,3.312,1.851,4.451h0.004
		c1.139,1.139,2.714,1.847,4.447,1.847h26.008c1.708,0,3.259-0.684,4.398-1.798l0.057-0.049c1.139-1.139,1.847-2.718,1.847-4.451
		V29.217l7.67-0.156c0.146,0.004,0.297-0.027,0.439-0.092c0.504-0.23,0.724-0.828,0.492-1.331
		C59.065,25.826,57.694,24.511,56.067,23.653z"/><path fill="#EC8C99" d="M12.694 27.215v-1.778c0-.348.008-.691.028-1.033-1.351.075-2.693.407-3.861 1.025-.789.417-1.497.969-2.075 1.665L12.694 27.215 12.694 27.215zM51.282 24.406c.017.34.024.686.024 1.031v1.778l5.908-.122c-.578-.696-1.29-1.25-2.08-1.667C53.967 24.811 52.628 24.481 51.282 24.406L51.282 24.406zM49.296 51.685c-.094-4.679-2.055-8.911-5.164-11.97C41.012 36.638 36.728 34.75 32 34.75s-9.008 1.888-12.129 4.964c-3.113 3.06-5.07 7.291-5.167 11.97.033 1.131.509 2.165 1.261 2.913l-.004.008c.781.773 1.855 1.253 3.035 1.253h26.008c1.16 0 2.213-.464 2.986-1.213l.045-.049C48.788 53.849 49.264 52.816 49.296 51.685L49.296 51.685z"/><path fill="#D0D2D3" d="M26.796,42.855c1.046,0,1.896,0.846,1.896,1.896c0,1.042-0.85,1.896-1.896,1.896
		c-1.045,0-1.896-0.854-1.896-1.896C24.9,43.702,25.75,42.855,26.796,42.855L26.796,42.855z M37.204,42.855
		c-1.05,0-1.896,0.846-1.896,1.896c0,1.042,0.846,1.896,1.896,1.896c1.045,0,1.892-0.854,1.892-1.896
		C39.096,43.702,38.25,42.855,37.204,42.855L37.204,42.855z"/><path d="M47.116,13.429l-0.005-0.011c1.469-0.206,3.206-0.793,4.907-1.599c1.949-0.919,3.817-2.114,5.172-3.34
		c0.407-0.37,1.042-0.338,1.412,0.071c0.216,0.24,0.297,0.555,0.24,0.85h0.004c-0.46,2.472-1.522,5.08-2.995,7.419
		c-1.314,2.096-2.962,3.994-4.809,5.405l-0.007-0.016C50.482,18.927,49.103,15.926,47.116,13.429z M12.958,22.225l0.01-0.022
		c0.554-3.279,1.93-6.279,3.915-8.774c0-0.004,0.001-0.007,0.001-0.011c-1.468-0.206-3.203-0.793-4.902-1.598
		c-1.949-0.919-3.817-2.114-5.172-3.34C6.403,8.108,5.769,8.141,5.398,8.55C5.183,8.79,5.102,9.105,5.158,9.4H5.154
		c0.46,2.472,1.522,5.08,2.991,7.419C9.463,18.915,11.115,20.813,12.958,22.225z"/></g></svg>