<svg xmlns="http://www.w3.org/2000/svg" width="57.008" height="52.739" viewBox="0 0 57.008 52.739">
  <g id="Grupo_29" data-name="Grupo 29" transform="translate(-3.495 -5.631)">
    <path id="Trazado_138" data-name="Trazado 138" d="M56.067,23.653a11.488,11.488,0,0,0-5-1.263l-.019-.109h0a19.384,19.384,0,0,0-5.4-10.5l0,0v0a19.3,19.3,0,0,0-27.24-.054l-.065.055a20.2,20.2,0,0,0-1.457,1.634h0s0,.007,0,.011a19.218,19.218,0,0,0-3.942,8.916h0l-.007.046a11.461,11.461,0,0,0-5,1.265,8.539,8.539,0,0,0-3.837,3.983,1,1,0,0,0,.931,1.423l7.67.156V51.572a6.274,6.274,0,0,0,1.851,4.451h0A6.278,6.278,0,0,0,19,57.87H45a6.269,6.269,0,0,0,4.4-1.8l.057-.049A6.287,6.287,0,0,0,51.3,51.572V29.217l7.67-.156a1,1,0,0,0,.931-1.423A8.539,8.539,0,0,0,56.067,23.653Z" stroke="#fff" stroke-width="1"/>
    <path id="Trazado_139" data-name="Trazado 139" d="M12.694,27.215V25.437c0-.348.008-.691.028-1.033a9.41,9.41,0,0,0-3.861,1.025,6.813,6.813,0,0,0-2.075,1.665l5.908.121Zm38.588-2.809c.017.34.024.686.024,1.031v1.778l5.908-.122a6.827,6.827,0,0,0-2.08-1.667,9.427,9.427,0,0,0-3.852-1.02ZM49.3,51.685a17.3,17.3,0,0,0-34.592,0A4.288,4.288,0,0,0,15.965,54.6l0,.008A4.308,4.308,0,0,0,19,55.858H45a4.28,4.28,0,0,0,2.986-1.213l.045-.049A4.272,4.272,0,0,0,49.3,51.685Z" fill="#090001" stroke="#fff" stroke-width="1"/>
    <path id="Trazado_140" data-name="Trazado 140" d="M26.8,42.855a1.9,1.9,0,1,1-1.9,1.9,1.895,1.895,0,0,1,1.9-1.9Zm10.408,0a1.9,1.9,0,1,0,1.892,1.9,1.892,1.892,0,0,0-1.892-1.9Z" fill="#d0d2d3"/>
    <path id="Trazado_141" data-name="Trazado 141" d="M47.116,13.429l-.005-.011a17.839,17.839,0,0,0,4.907-1.6,21.853,21.853,0,0,0,5.172-3.34A1,1,0,0,1,58.6,8.55a.988.988,0,0,1,.24.85h0a21.745,21.745,0,0,1-2.995,7.419,20.6,20.6,0,0,1-4.809,5.405l-.007-.016A19.217,19.217,0,0,0,47.116,13.429Zm-34.158,8.8.01-.022a19.224,19.224,0,0,1,3.915-8.774s0-.007,0-.011a17.829,17.829,0,0,1-4.9-1.6A21.853,21.853,0,0,1,6.81,8.48a1,1,0,0,0-1.652.92h0a21.815,21.815,0,0,0,2.991,7.419A20.772,20.772,0,0,0,12.958,22.225Z"/>
  </g>
</svg>
